<svg xmlns="http://www.w3.org/2000/svg" version="1.1" style="font-family:Lato, &#x27;Helvetica Neue&#x27;, Helvetica, Arial, sans-serif;font-size:18px;background-color:white;text-rendering:geometricPrecision;-webkit-font-smoothing:antialiased" width="850" height="600" viewBox="0 0 850 600"><defs><pattern id="noDataPattern" patternUnits="userSpaceOnUse" width="4" height="4" patternTransform="rotate(-45 2 2)"><path d="M -1,2 l 6,0" stroke="#ccc" stroke-width="0.7"></path></pattern></defs><g class="HeaderView"><g transform="translate(774, 15) scale(0.29)"><svg className="owidLog" width="210" height="120" viewBox="0 0 210 120" fill="none" xmlns="http://www.w3.org/2000/svg">
<g clip-path="url(#clip0)">
  <path d="M0 0h210v107.89H0V0z" fill="#002147" />
  <path
    d="M40.98 32.25c0 2.36-.38 4.53-1.12 6.51a14.26 14.26 0 0 1-8.1 8.4c-1.9.78-4.02 1.17-6.34 1.17-2.31 0-4.42-.39-6.33-1.17a14.31 14.31 0 0 1-8.08-8.4 18.29 18.29 0 0 1-1.12-6.51c0-2.36.38-4.53 1.12-6.5.75-1.97 1.8-3.67 3.17-5.1a14.32 14.32 0 0 1 4.9-3.34c1.92-.8 4.03-1.19 6.34-1.19 2.32 0 4.43.4 6.34 1.19 1.92.8 3.56 1.9 4.93 3.34a14.87 14.87 0 0 1 3.17 5.1 18.1 18.1 0 0 1 1.12 6.5zm-4.38 0c0-1.94-.26-3.68-.8-5.22a10.91 10.91 0 0 0-2.24-3.89 9.68 9.68 0 0 0-3.52-2.46 11.95 11.95 0 0 0-4.62-.86c-1.68 0-3.21.28-4.6.86a9.88 9.88 0 0 0-3.54 2.46 10.91 10.91 0 0 0-2.24 3.9c-.53 1.53-.8 3.27-.8 5.2 0 1.94.27 3.68.8 5.22a11.17 11.17 0 0 0 2.24 3.9 10.01 10.01 0 0 0 3.55 2.44c1.38.56 2.9.83 4.6.83s3.24-.27 4.61-.83a9.8 9.8 0 0 0 3.52-2.44 11.17 11.17 0 0 0 2.25-3.9c.53-1.54.8-3.28.8-5.21zm26.22-6.54V48H60.5c-.56 0-.9-.27-1.05-.81l-.31-2.4a12.45 12.45 0 0 1-3.26 2.6c-1.2.64-2.58.96-4.13.96-1.22 0-2.3-.2-3.24-.6a6.52 6.52 0 0 1-2.33-1.7 7.37 7.37 0 0 1-1.43-2.67c-.3-1.04-.46-2.2-.46-3.45V25.7h3.91v14.22c0 1.68.38 2.99 1.15 3.91.77.93 1.96 1.39 3.54 1.39 1.16 0 2.24-.27 3.23-.82a10.42 10.42 0 0 0 2.8-2.28V25.7h3.91zm8.61 4.47a9.94 9.94 0 0 1 2.6-3.56 5.64 5.64 0 0 1 3.76-1.3c.47 0 .92.05 1.34.15.44.1.83.27 1.17.49l-.3 2.92c-.09.37-.3.55-.66.55-.2 0-.5-.04-.9-.13a6.21 6.21 0 0 0-3.24.18 4.23 4.23 0 0 0-1.47.92c-.42.4-.81.9-1.17 1.5-.33.58-.64 1.26-.92 2.02V48H67.7V25.71h2.25c.42 0 .72.08.88.25.16.16.27.44.33.83l.26 3.39zm61.16-13.7L122.75 48h-3.82l-7.99-24.05a21.95 21.95 0 0 1-.42-1.58 38.36 38.36 0 0 1-.44 1.58L102.05 48h-3.83L88.4 16.47h3.54c.38 0 .7.1.95.29.26.2.43.43.5.73l6.52 21.9.28 1.28.29 1.46.3-1.46.38-1.27 7.41-21.91c.1-.25.26-.48.51-.69.27-.22.58-.33.95-.33h1.23c.38 0 .69.1.92.29a1.77 1.77 0 0 1 .53.73l7.4 21.9a28.4 28.4 0 0 1 .68 2.62 29.52 29.52 0 0 1 .52-2.61l6.54-21.91a1.31 1.31 0 0 1 .48-.7c.27-.21.58-.32.95-.32h3.32zm9.35 8.88c1.63 0 3.1.27 4.4.82a9.43 9.43 0 0 1 5.46 5.94c.5 1.4.74 2.98.74 4.73 0 1.76-.25 3.34-.74 4.75a9.43 9.43 0 0 1-5.46 5.92c-1.3.52-2.77.79-4.4.79-1.64 0-3.12-.27-4.44-.8a9.42 9.42 0 0 1-3.35-2.3c-.92-1-1.63-2.2-2.13-3.61-.49-1.41-.73-3-.73-4.75s.24-3.33.73-4.73c.5-1.43 1.2-2.64 2.13-3.63.93-1 2.04-1.77 3.35-2.31 1.32-.55 2.8-.82 4.44-.82zm0 19.89c2.2 0 3.84-.73 4.93-2.2 1.08-1.48 1.63-3.54 1.63-6.18 0-2.66-.55-4.72-1.63-6.2-1.09-1.49-2.73-2.23-4.93-2.23-1.12 0-2.09.2-2.93.57a5.71 5.71 0 0 0-2.06 1.65c-.55.72-.96 1.61-1.24 2.67-.26 1.04-.4 2.22-.4 3.54 0 2.64.55 4.7 1.64 6.18 1.1 1.47 2.76 2.2 4.99 2.2zm17.97-15.07a9.94 9.94 0 0 1 2.6-3.56 5.64 5.64 0 0 1 3.76-1.3c.47 0 .91.05 1.34.15.44.1.83.27 1.16.49l-.28 2.92c-.09.37-.31.55-.66.55-.2 0-.5-.04-.9-.13a6.2 6.2 0 0 0-3.24.18 4.23 4.23 0 0 0-1.47.92c-.43.4-.82.9-1.17 1.5a13.1 13.1 0 0 0-.92 2.02V48h-3.94V25.71h2.24c.43 0 .72.08.88.25.17.16.28.44.33.83l.27 3.39zm15.04-14.59V48h-3.92V15.6h3.92zm19.55 15.43a6.22 6.22 0 0 0-2.38-2.05 6.7 6.7 0 0 0-2.86-.6c-2.07 0-3.66.75-4.77 2.23-1.12 1.48-1.68 3.6-1.68 6.33 0 1.46.13 2.7.38 3.74a7.29 7.29 0 0 0 1.1 2.56 4.35 4.35 0 0 0 1.78 1.45c.7.3 1.5.46 2.4.46 1.29 0 2.41-.3 3.36-.88a9.6 9.6 0 0 0 2.67-2.49V31.02zm3.91-15.43V48h-2.33c-.56 0-.9-.27-1.06-.81l-.35-2.71a12.13 12.13 0 0 1-3.25 2.77 8.28 8.28 0 0 1-4.23 1.06 7.31 7.31 0 0 1-6.14-2.9c-.73-.96-1.3-2.15-1.69-3.57a18.35 18.35 0 0 1 .07-9.48 11.29 11.29 0 0 1 1.89-3.7 8.7 8.7 0 0 1 7.06-3.34 7.96 7.96 0 0 1 6.12 2.62V15.59h3.91zM46.61 70.71V93H42.7V70.71h3.91zm.84-7c0 .39-.08.75-.24 1.09-.15.32-.35.61-.62.88-.25.25-.55.44-.9.59a2.67 2.67 0 0 1-2.16 0 2.9 2.9 0 0 1-1.45-1.47 2.67 2.67 0 0 1 0-2.16c.15-.35.35-.65.6-.9.25-.27.53-.47.85-.62a2.67 2.67 0 0 1 2.16 0c.35.15.65.35.9.62.27.25.47.55.62.9.16.34.24.7.24 1.08zm7.97 10.24c.49-.54 1-1.04 1.54-1.48a9.85 9.85 0 0 1 3.66-1.84 8.96 8.96 0 0 1 5.43.35c.94.4 1.72.97 2.33 1.71.63.74 1.11 1.62 1.43 2.67.32 1.04.49 2.19.49 3.45V93h-3.94V78.81c0-1.69-.4-3-1.17-3.92-.76-.93-1.93-1.4-3.5-1.4-1.15 0-2.24.27-3.25.83-1 .56-1.92 1.31-2.77 2.27V93h-3.94V70.71h2.35c.56 0 .9.28 1.04.82l.3 2.42zm57.7 3.3c0 2.36-.37 4.5-1.11 6.44a14.3 14.3 0 0 1-3.17 4.98c-1.37 1.37-3 2.45-4.93 3.2-1.9.76-4.02 1.13-6.33 1.13H85.8V61.47h11.77c2.31 0 4.42.39 6.33 1.15a13.8 13.8 0 0 1 8.1 8.18 17.75 17.75 0 0 1 1.12 6.45zm-4.37 0c0-1.94-.26-3.67-.8-5.2a10.94 10.94 0 0 0-2.23-3.87 9.57 9.57 0 0 0-3.53-2.42 12.23 12.23 0 0 0-4.61-.83h-7.5v24.62h7.5c1.7 0 3.24-.28 4.61-.84a9.7 9.7 0 0 0 3.53-2.4 10.94 10.94 0 0 0 2.24-3.87c.53-1.53.8-3.26.8-5.2zm19.8 5.72c-1.8.06-3.34.2-4.62.44-1.26.22-2.3.51-3.1.88-.8.36-1.37.8-1.74 1.3-.35.5-.53 1.05-.53 1.67 0 .58.1 1.1.3 1.52a3 3 0 0 0 .76 1.05c.34.27.73.46 1.17.6a6.13 6.13 0 0 0 1.45.17 7.28 7.28 0 0 0 3.5-.81 11.95 11.95 0 0 0 2.82-2.2v-4.62zm-12.65-9.11a12.73 12.73 0 0 1 3.98-2.66c1.43-.59 3-.88 4.73-.88 1.25 0 2.36.2 3.33.61a6.81 6.81 0 0 1 3.94 4.38c.33 1.04.5 2.19.5 3.43V93h-1.74a1.8 1.8 0 0 1-.88-.18c-.2-.13-.36-.38-.48-.74l-.44-2.12-1.72 1.46a9.48 9.48 0 0 1-3.74 1.7c-.69.15-1.46.23-2.3.23-.87 0-1.69-.12-2.45-.35a5.34 5.34 0 0 1-3.34-2.93 6.64 6.64 0 0 1-.49-2.64c0-.88.25-1.72.73-2.53a6.33 6.33 0 0 1 2.35-2.17c1.09-.63 2.5-1.15 4.25-1.54 1.75-.41 3.89-.65 6.42-.7v-1.75c0-1.73-.37-3.03-1.12-3.91-.75-.9-1.84-1.34-3.28-1.34-.97 0-1.78.12-2.44.37-.64.23-1.2.5-1.7.81l-1.23.82c-.33.23-.67.35-1 .35-.27 0-.5-.07-.69-.2a2.1 2.1 0 0 1-.48-.53l-.7-1.25zm27.67 19.5c-1.76 0-3.12-.5-4.07-1.48-.94-.98-1.41-2.4-1.41-4.25V74h-2.68a.9.9 0 0 1-.6-.2c-.16-.14-.24-.36-.24-.66v-1.56l3.65-.46.9-6.89c.05-.22.14-.4.29-.52a.88.88 0 0 1 .62-.22H142v7.67h6.44V74H142v13.38c0 .94.22 1.63.68 2.09.45.45 1.04.68 1.76.68a3.21 3.21 0 0 0 1.85-.53l.55-.35c.16-.12.3-.18.41-.18.2 0 .4.13.55.38l1.15 1.87a7.45 7.45 0 0 1-2.44 1.5 8.53 8.53 0 0 1-2.95.52zm19.68-10.4c-1.8.07-3.34.21-4.62.45-1.26.22-2.3.51-3.1.88-.8.36-1.37.8-1.74 1.3-.35.5-.53 1.05-.53 1.67 0 .58.1 1.1.3 1.52a2.9 2.9 0 0 0 .76 1.05c.34.27.73.46 1.17.6a6.13 6.13 0 0 0 1.45.17 7.3 7.3 0 0 0 3.5-.81 12.04 12.04 0 0 0 2.82-2.2v-4.62zm-12.65-9.1a12.72 12.72 0 0 1 3.99-2.66c1.42-.59 3-.88 4.72-.88 1.25 0 2.36.2 3.33.61a6.81 6.81 0 0 1 3.94 4.38c.33 1.04.5 2.19.5 3.43V93h-1.74a1.8 1.8 0 0 1-.88-.18c-.2-.13-.36-.38-.48-.74l-.44-2.12-1.72 1.46a9.48 9.48 0 0 1-3.74 1.7c-.69.15-1.46.23-2.3.23-.87 0-1.69-.12-2.45-.35a5.33 5.33 0 0 1-3.34-2.93 6.62 6.62 0 0 1-.49-2.64c0-.88.25-1.72.73-2.53a6.33 6.33 0 0 1 2.35-2.17c1.09-.63 2.5-1.15 4.25-1.54 1.74-.41 3.89-.65 6.42-.7v-1.75c0-1.73-.37-3.03-1.12-3.91-.75-.9-1.84-1.34-3.28-1.34-.97 0-1.78.12-2.44.37-.64.23-1.2.5-1.7.81l-1.22.82c-.34.23-.68.35-1.02.35-.26 0-.49-.07-.68-.2a1.88 1.88 0 0 1-.48-.53l-.7-1.25zM40.98 32.25c0 2.36-.38 4.53-1.12 6.51a14.26 14.26 0 0 1-8.1 8.4c-1.9.78-4.02 1.17-6.34 1.17-2.31 0-4.42-.39-6.33-1.17a14.31 14.31 0 0 1-8.08-8.4 18.29 18.29 0 0 1-1.12-6.51c0-2.36.38-4.53 1.12-6.5.75-1.97 1.8-3.67 3.17-5.1a14.32 14.32 0 0 1 4.9-3.34c1.92-.8 4.03-1.19 6.34-1.19 2.32 0 4.43.4 6.34 1.19 1.92.8 3.56 1.9 4.93 3.34a14.87 14.87 0 0 1 3.17 5.1 18.1 18.1 0 0 1 1.12 6.5zm-4.38 0c0-1.94-.26-3.68-.8-5.22a10.91 10.91 0 0 0-2.24-3.89 9.68 9.68 0 0 0-3.52-2.46 11.95 11.95 0 0 0-4.62-.86c-1.68 0-3.21.28-4.6.86a9.88 9.88 0 0 0-3.54 2.46 10.91 10.91 0 0 0-2.24 3.9c-.53 1.53-.8 3.27-.8 5.2 0 1.94.27 3.68.8 5.22a11.17 11.17 0 0 0 2.24 3.9 10.01 10.01 0 0 0 3.55 2.44c1.38.56 2.9.83 4.6.83s3.24-.27 4.61-.83a9.8 9.8 0 0 0 3.52-2.44 11.17 11.17 0 0 0 2.25-3.9c.53-1.54.8-3.28.8-5.21zm26.22-6.54V48H60.5c-.56 0-.9-.27-1.05-.81l-.31-2.4a12.45 12.45 0 0 1-3.26 2.6c-1.2.64-2.58.96-4.13.96-1.22 0-2.3-.2-3.24-.6a6.52 6.52 0 0 1-2.33-1.7 7.37 7.37 0 0 1-1.43-2.67c-.3-1.04-.46-2.2-.46-3.45V25.7h3.91v14.22c0 1.68.38 2.99 1.15 3.91.77.93 1.96 1.39 3.54 1.39 1.16 0 2.24-.27 3.23-.82a10.42 10.42 0 0 0 2.8-2.28V25.7h3.91zm8.61 4.47a9.94 9.94 0 0 1 2.6-3.56 5.64 5.64 0 0 1 3.76-1.3c.47 0 .92.05 1.34.15.44.1.83.27 1.17.49l-.3 2.92c-.09.37-.3.55-.66.55-.2 0-.5-.04-.9-.13a6.21 6.21 0 0 0-3.24.18 4.23 4.23 0 0 0-1.47.92c-.42.4-.81.9-1.17 1.5-.33.58-.64 1.26-.92 2.02V48H67.7V25.71h2.25c.42 0 .72.08.88.25.16.16.27.44.33.83l.26 3.39zm61.16-13.7L122.75 48h-3.82l-7.99-24.05a21.95 21.95 0 0 1-.42-1.58 38.36 38.36 0 0 1-.44 1.58L102.05 48h-3.83L88.4 16.47h3.54c.38 0 .7.1.95.29.26.2.43.43.5.73l6.52 21.9.28 1.28.29 1.46.3-1.46.38-1.27 7.41-21.91c.1-.25.26-.48.51-.69.27-.22.58-.33.95-.33h1.23c.38 0 .69.1.92.29a1.77 1.77 0 0 1 .53.73l7.4 21.9a28.4 28.4 0 0 1 .68 2.62 29.52 29.52 0 0 1 .52-2.61l6.54-21.91a1.31 1.31 0 0 1 .48-.7c.27-.21.58-.32.95-.32h3.32zm9.35 8.88c1.63 0 3.1.27 4.4.82a9.43 9.43 0 0 1 5.46 5.94c.5 1.4.74 2.98.74 4.73 0 1.76-.25 3.34-.74 4.75a9.43 9.43 0 0 1-5.46 5.92c-1.3.52-2.77.79-4.4.79-1.64 0-3.12-.27-4.44-.8a9.42 9.42 0 0 1-3.35-2.3c-.92-1-1.63-2.2-2.13-3.61-.49-1.41-.73-3-.73-4.75s.24-3.33.73-4.73c.5-1.43 1.2-2.64 2.13-3.63.93-1 2.04-1.77 3.35-2.31 1.32-.55 2.8-.82 4.44-.82zm0 19.89c2.2 0 3.84-.73 4.93-2.2 1.08-1.48 1.63-3.54 1.63-6.18 0-2.66-.55-4.72-1.63-6.2-1.09-1.49-2.73-2.23-4.93-2.23-1.12 0-2.09.2-2.93.57a5.71 5.71 0 0 0-2.06 1.65c-.55.72-.96 1.61-1.24 2.67-.26 1.04-.4 2.22-.4 3.54 0 2.64.55 4.7 1.64 6.18 1.1 1.47 2.76 2.2 4.99 2.2zm17.97-15.07a9.94 9.94 0 0 1 2.6-3.56 5.64 5.64 0 0 1 3.76-1.3c.47 0 .91.05 1.34.15.44.1.83.27 1.16.49l-.28 2.92c-.09.37-.31.55-.66.55-.2 0-.5-.04-.9-.13a6.2 6.2 0 0 0-3.24.18 4.23 4.23 0 0 0-1.47.92c-.43.4-.82.9-1.17 1.5a13.1 13.1 0 0 0-.92 2.02V48h-3.94V25.71h2.24c.43 0 .72.08.88.25.17.16.28.44.33.83l.27 3.39zm15.04-14.59V48h-3.92V15.6h3.92zm19.55 15.43a6.22 6.22 0 0 0-2.38-2.05 6.7 6.7 0 0 0-2.86-.6c-2.07 0-3.66.75-4.77 2.23-1.12 1.48-1.68 3.6-1.68 6.33 0 1.46.13 2.7.38 3.74a7.29 7.29 0 0 0 1.1 2.56 4.35 4.35 0 0 0 1.78 1.45c.7.3 1.5.46 2.4.46 1.29 0 2.41-.3 3.36-.88a9.6 9.6 0 0 0 2.67-2.49V31.02zm3.91-15.43V48h-2.33c-.56 0-.9-.27-1.06-.81l-.35-2.71a12.13 12.13 0 0 1-3.25 2.77 8.28 8.28 0 0 1-4.23 1.06 7.31 7.31 0 0 1-6.14-2.9c-.73-.96-1.3-2.15-1.69-3.57a18.35 18.35 0 0 1 .07-9.48 11.29 11.29 0 0 1 1.89-3.7 8.7 8.7 0 0 1 7.06-3.34 7.96 7.96 0 0 1 6.12 2.62V15.59h3.91zM46.61 70.71V93H42.7V70.71h3.91zm.84-7c0 .39-.08.75-.24 1.09-.15.32-.35.61-.62.88-.25.25-.55.44-.9.59a2.67 2.67 0 0 1-2.16 0 2.9 2.9 0 0 1-1.45-1.47 2.67 2.67 0 0 1 0-2.16c.15-.35.35-.65.6-.9.25-.27.53-.47.85-.62a2.67 2.67 0 0 1 2.16 0c.35.15.65.35.9.62.27.25.47.55.62.9.16.34.24.7.24 1.08zm7.97 10.24c.49-.54 1-1.04 1.54-1.48a9.85 9.85 0 0 1 3.66-1.84 8.96 8.96 0 0 1 5.43.35c.94.4 1.72.97 2.33 1.71.63.74 1.11 1.62 1.43 2.67.32 1.04.49 2.19.49 3.45V93h-3.94V78.81c0-1.69-.4-3-1.17-3.92-.76-.93-1.93-1.4-3.5-1.4-1.15 0-2.24.27-3.25.83-1 .56-1.92 1.31-2.77 2.27V93h-3.94V70.71h2.35c.56 0 .9.28 1.04.82l.3 2.42zm57.7 3.3c0 2.36-.37 4.5-1.11 6.44a14.3 14.3 0 0 1-3.17 4.98c-1.37 1.37-3 2.45-4.93 3.2-1.9.76-4.02 1.13-6.33 1.13H85.8V61.47h11.77c2.31 0 4.42.39 6.33 1.15a13.8 13.8 0 0 1 8.1 8.18 17.75 17.75 0 0 1 1.12 6.45zm-4.37 0c0-1.94-.26-3.67-.8-5.2a10.94 10.94 0 0 0-2.23-3.87 9.57 9.57 0 0 0-3.53-2.42 12.23 12.23 0 0 0-4.61-.83h-7.5v24.62h7.5c1.7 0 3.24-.28 4.61-.84a9.7 9.7 0 0 0 3.53-2.4 10.94 10.94 0 0 0 2.24-3.87c.53-1.53.8-3.26.8-5.2zm19.8 5.72c-1.8.06-3.34.2-4.62.44-1.26.22-2.3.51-3.1.88-.8.36-1.37.8-1.74 1.3-.35.5-.53 1.05-.53 1.67 0 .58.1 1.1.3 1.52a3 3 0 0 0 .76 1.05c.34.27.73.46 1.17.6a6.13 6.13 0 0 0 1.45.17 7.28 7.28 0 0 0 3.5-.81 11.95 11.95 0 0 0 2.82-2.2v-4.62zm-12.65-9.11a12.73 12.73 0 0 1 3.98-2.66c1.43-.59 3-.88 4.73-.88 1.25 0 2.36.2 3.33.61a6.81 6.81 0 0 1 3.94 4.38c.33 1.04.5 2.19.5 3.43V93h-1.74a1.8 1.8 0 0 1-.88-.18c-.2-.13-.36-.38-.48-.74l-.44-2.12-1.72 1.46a9.48 9.48 0 0 1-3.74 1.7c-.69.15-1.46.23-2.3.23-.87 0-1.69-.12-2.45-.35a5.34 5.34 0 0 1-3.34-2.93 6.64 6.64 0 0 1-.49-2.64c0-.88.25-1.72.73-2.53a6.33 6.33 0 0 1 2.35-2.17c1.09-.63 2.5-1.15 4.25-1.54 1.75-.41 3.89-.65 6.42-.7v-1.75c0-1.73-.37-3.03-1.12-3.91-.75-.9-1.84-1.34-3.28-1.34-.97 0-1.78.12-2.44.37-.64.23-1.2.5-1.7.81l-1.23.82c-.33.23-.67.35-1 .35-.27 0-.5-.07-.69-.2a2.1 2.1 0 0 1-.48-.53l-.7-1.25zm27.67 19.5c-1.76 0-3.12-.5-4.07-1.48-.94-.98-1.41-2.4-1.41-4.25V74h-2.68a.9.9 0 0 1-.6-.2c-.16-.14-.24-.36-.24-.66v-1.56l3.65-.46.9-6.89c.05-.22.14-.4.29-.52a.88.88 0 0 1 .62-.22H142v7.67h6.44V74H142v13.38c0 .94.22 1.63.68 2.09.45.45 1.04.68 1.76.68a3.21 3.21 0 0 0 1.85-.53l.55-.35c.16-.12.3-.18.41-.18.2 0 .4.13.55.38l1.15 1.87a7.45 7.45 0 0 1-2.44 1.5 8.53 8.53 0 0 1-2.95.52zm19.68-10.4c-1.8.07-3.34.21-4.62.45-1.26.22-2.3.51-3.1.88-.8.36-1.37.8-1.74 1.3-.35.5-.53 1.05-.53 1.67 0 .58.1 1.1.3 1.52a2.9 2.9 0 0 0 .76 1.05c.34.27.73.46 1.17.6a6.13 6.13 0 0 0 1.45.17 7.3 7.3 0 0 0 3.5-.81 12.04 12.04 0 0 0 2.82-2.2v-4.62zm-12.65-9.1a12.72 12.72 0 0 1 3.99-2.66c1.42-.59 3-.88 4.72-.88 1.25 0 2.36.2 3.33.61a6.81 6.81 0 0 1 3.94 4.38c.33 1.04.5 2.19.5 3.43V93h-1.74a1.8 1.8 0 0 1-.88-.18c-.2-.13-.36-.38-.48-.74l-.44-2.12-1.72 1.46a9.48 9.48 0 0 1-3.74 1.7c-.69.15-1.46.23-2.3.23-.87 0-1.69-.12-2.45-.35a5.33 5.33 0 0 1-3.34-2.93 6.62 6.62 0 0 1-.49-2.64c0-.88.25-1.72.73-2.53a6.33 6.33 0 0 1 2.35-2.17c1.09-.63 2.5-1.15 4.25-1.54 1.74-.41 3.89-.65 6.42-.7v-1.75c0-1.73-.37-3.03-1.12-3.91-.75-.9-1.84-1.34-3.28-1.34-.97 0-1.78.12-2.44.37-.64.23-1.2.5-1.7.81l-1.22.82c-.34.23-.68.35-1.02.35-.26 0-.49-.07-.68-.2a1.88 1.88 0 0 1-.48-.53l-.7-1.25zM40.98 32.25c0 2.36-.38 4.53-1.12 6.51a14.26 14.26 0 0 1-8.1 8.4c-1.9.78-4.02 1.17-6.34 1.17-2.31 0-4.42-.39-6.33-1.17a14.31 14.31 0 0 1-8.08-8.4 18.29 18.29 0 0 1-1.12-6.51c0-2.36.38-4.53 1.12-6.5.75-1.97 1.8-3.67 3.17-5.1a14.32 14.32 0 0 1 4.9-3.34c1.92-.8 4.03-1.19 6.34-1.19 2.32 0 4.43.4 6.34 1.19 1.92.8 3.56 1.9 4.93 3.34a14.87 14.87 0 0 1 3.17 5.1 18.1 18.1 0 0 1 1.12 6.5zm-4.38 0c0-1.94-.26-3.68-.8-5.22a10.91 10.91 0 0 0-2.24-3.89 9.68 9.68 0 0 0-3.52-2.46 11.95 11.95 0 0 0-4.62-.86c-1.68 0-3.21.28-4.6.86a9.88 9.88 0 0 0-3.54 2.46 10.91 10.91 0 0 0-2.24 3.9c-.53 1.53-.8 3.27-.8 5.2 0 1.94.27 3.68.8 5.22a11.17 11.17 0 0 0 2.24 3.9 10.01 10.01 0 0 0 3.55 2.44c1.38.56 2.9.83 4.6.83s3.24-.27 4.61-.83a9.8 9.8 0 0 0 3.52-2.44 11.17 11.17 0 0 0 2.25-3.9c.53-1.54.8-3.28.8-5.21zm26.22-6.54V48H60.5c-.56 0-.9-.27-1.05-.81l-.31-2.4a12.45 12.45 0 0 1-3.26 2.6c-1.2.64-2.58.96-4.13.96-1.22 0-2.3-.2-3.24-.6a6.52 6.52 0 0 1-2.33-1.7 7.37 7.37 0 0 1-1.43-2.67c-.3-1.04-.46-2.2-.46-3.45V25.7h3.91v14.22c0 1.68.38 2.99 1.15 3.91.77.93 1.96 1.39 3.54 1.39 1.16 0 2.24-.27 3.23-.82a10.42 10.42 0 0 0 2.8-2.28V25.7h3.91zm8.61 4.47a9.94 9.94 0 0 1 2.6-3.56 5.64 5.64 0 0 1 3.76-1.3c.47 0 .92.05 1.34.15.44.1.83.27 1.17.49l-.3 2.92c-.09.37-.3.55-.66.55-.2 0-.5-.04-.9-.13a6.21 6.21 0 0 0-3.24.18 4.23 4.23 0 0 0-1.47.92c-.42.4-.81.9-1.17 1.5-.33.58-.64 1.26-.92 2.02V48H67.7V25.71h2.25c.42 0 .72.08.88.25.16.16.27.44.33.83l.26 3.39zm61.16-13.7L122.75 48h-3.82l-7.99-24.05a21.95 21.95 0 0 1-.42-1.58 38.36 38.36 0 0 1-.44 1.58L102.05 48h-3.83L88.4 16.47h3.54c.38 0 .7.1.95.29.26.2.43.43.5.73l6.52 21.9.28 1.28.29 1.46.3-1.46.38-1.27 7.41-21.91c.1-.25.26-.48.51-.69.27-.22.58-.33.95-.33h1.23c.38 0 .69.1.92.29a1.77 1.77 0 0 1 .53.73l7.4 21.9a28.4 28.4 0 0 1 .68 2.62 29.52 29.52 0 0 1 .52-2.61l6.54-21.91a1.31 1.31 0 0 1 .48-.7c.27-.21.58-.32.95-.32h3.32zm9.35 8.88c1.63 0 3.1.27 4.4.82a9.43 9.43 0 0 1 5.46 5.94c.5 1.4.74 2.98.74 4.73 0 1.76-.25 3.34-.74 4.75a9.43 9.43 0 0 1-5.46 5.92c-1.3.52-2.77.79-4.4.79-1.64 0-3.12-.27-4.44-.8a9.42 9.42 0 0 1-3.35-2.3c-.92-1-1.63-2.2-2.13-3.61-.49-1.41-.73-3-.73-4.75s.24-3.33.73-4.73c.5-1.43 1.2-2.64 2.13-3.63.93-1 2.04-1.77 3.35-2.31 1.32-.55 2.8-.82 4.44-.82zm0 19.89c2.2 0 3.84-.73 4.93-2.2 1.08-1.48 1.63-3.54 1.63-6.18 0-2.66-.55-4.72-1.63-6.2-1.09-1.49-2.73-2.23-4.93-2.23-1.12 0-2.09.2-2.93.57a5.71 5.71 0 0 0-2.06 1.65c-.55.72-.96 1.61-1.24 2.67-.26 1.04-.4 2.22-.4 3.54 0 2.64.55 4.7 1.64 6.18 1.1 1.47 2.76 2.2 4.99 2.2zm17.97-15.07a9.94 9.94 0 0 1 2.6-3.56 5.64 5.64 0 0 1 3.76-1.3c.47 0 .91.05 1.34.15.44.1.83.27 1.16.49l-.28 2.92c-.09.37-.31.55-.66.55-.2 0-.5-.04-.9-.13a6.2 6.2 0 0 0-3.24.18 4.23 4.23 0 0 0-1.47.92c-.43.4-.82.9-1.17 1.5a13.1 13.1 0 0 0-.92 2.02V48h-3.94V25.71h2.24c.43 0 .72.08.88.25.17.16.28.44.33.83l.27 3.39zm15.04-14.59V48h-3.92V15.6h3.92zm19.55 15.43a6.22 6.22 0 0 0-2.38-2.05 6.7 6.7 0 0 0-2.86-.6c-2.07 0-3.66.75-4.77 2.23-1.12 1.48-1.68 3.6-1.68 6.33 0 1.46.13 2.7.38 3.74a7.29 7.29 0 0 0 1.1 2.56 4.35 4.35 0 0 0 1.78 1.45c.7.3 1.5.46 2.4.46 1.29 0 2.41-.3 3.36-.88a9.6 9.6 0 0 0 2.67-2.49V31.02zm3.91-15.43V48h-2.33c-.56 0-.9-.27-1.06-.81l-.35-2.71a12.13 12.13 0 0 1-3.25 2.77 8.28 8.28 0 0 1-4.23 1.06 7.31 7.31 0 0 1-6.14-2.9c-.73-.96-1.3-2.15-1.69-3.57a18.35 18.35 0 0 1 .07-9.48 11.29 11.29 0 0 1 1.89-3.7 8.7 8.7 0 0 1 7.06-3.34 7.96 7.96 0 0 1 6.12 2.62V15.59h3.91zM46.61 70.71V93H42.7V70.71h3.91zm.84-7c0 .39-.08.75-.24 1.09-.15.32-.35.61-.62.88-.25.25-.55.44-.9.59a2.67 2.67 0 0 1-2.16 0 2.9 2.9 0 0 1-1.45-1.47 2.67 2.67 0 0 1 0-2.16c.15-.35.35-.65.6-.9.25-.27.53-.47.85-.62a2.67 2.67 0 0 1 2.16 0c.35.15.65.35.9.62.27.25.47.55.62.9.16.34.24.7.24 1.08zm7.97 10.24c.49-.54 1-1.04 1.54-1.48a9.85 9.85 0 0 1 3.66-1.84 8.96 8.96 0 0 1 5.43.35c.94.4 1.72.97 2.33 1.71.63.74 1.11 1.62 1.43 2.67.32 1.04.49 2.19.49 3.45V93h-3.94V78.81c0-1.69-.4-3-1.17-3.92-.76-.93-1.93-1.4-3.5-1.4-1.15 0-2.24.27-3.25.83-1 .56-1.92 1.31-2.77 2.27V93h-3.94V70.71h2.35c.56 0 .9.28 1.04.82l.3 2.42zm57.7 3.3c0 2.36-.37 4.5-1.11 6.44a14.3 14.3 0 0 1-3.17 4.98c-1.37 1.37-3 2.45-4.93 3.2-1.9.76-4.02 1.13-6.33 1.13H85.8V61.47h11.77c2.31 0 4.42.39 6.33 1.15a13.8 13.8 0 0 1 8.1 8.18 17.75 17.75 0 0 1 1.12 6.45zm-4.37 0c0-1.94-.26-3.67-.8-5.2a10.94 10.94 0 0 0-2.23-3.87 9.57 9.57 0 0 0-3.53-2.42 12.23 12.23 0 0 0-4.61-.83h-7.5v24.62h7.5c1.7 0 3.24-.28 4.61-.84a9.7 9.7 0 0 0 3.53-2.4 10.94 10.94 0 0 0 2.24-3.87c.53-1.53.8-3.26.8-5.2zm19.8 5.72c-1.8.06-3.34.2-4.62.44-1.26.22-2.3.51-3.1.88-.8.36-1.37.8-1.74 1.3-.35.5-.53 1.05-.53 1.67 0 .58.1 1.1.3 1.52a3 3 0 0 0 .76 1.05c.34.27.73.46 1.17.6a6.13 6.13 0 0 0 1.45.17 7.28 7.28 0 0 0 3.5-.81 11.95 11.95 0 0 0 2.82-2.2v-4.62zm-12.65-9.11a12.73 12.73 0 0 1 3.98-2.66c1.43-.59 3-.88 4.73-.88 1.25 0 2.36.2 3.33.61a6.81 6.81 0 0 1 3.94 4.38c.33 1.04.5 2.19.5 3.43V93h-1.74a1.8 1.8 0 0 1-.88-.18c-.2-.13-.36-.38-.48-.74l-.44-2.12-1.72 1.46a9.48 9.48 0 0 1-3.74 1.7c-.69.15-1.46.23-2.3.23-.87 0-1.69-.12-2.45-.35a5.34 5.34 0 0 1-3.34-2.93 6.64 6.64 0 0 1-.49-2.64c0-.88.25-1.72.73-2.53a6.33 6.33 0 0 1 2.35-2.17c1.09-.63 2.5-1.15 4.25-1.54 1.75-.41 3.89-.65 6.42-.7v-1.75c0-1.73-.37-3.03-1.12-3.91-.75-.9-1.84-1.34-3.28-1.34-.97 0-1.78.12-2.44.37-.64.23-1.2.5-1.7.81l-1.23.82c-.33.23-.67.35-1 .35-.27 0-.5-.07-.69-.2a2.1 2.1 0 0 1-.48-.53l-.7-1.25zm27.67 19.5c-1.76 0-3.12-.5-4.07-1.48-.94-.98-1.41-2.4-1.41-4.25V74h-2.68a.9.9 0 0 1-.6-.2c-.16-.14-.24-.36-.24-.66v-1.56l3.65-.46.9-6.89c.05-.22.14-.4.29-.52a.88.88 0 0 1 .62-.22H142v7.67h6.44V74H142v13.38c0 .94.22 1.63.68 2.09.45.45 1.04.68 1.76.68a3.21 3.21 0 0 0 1.85-.53l.55-.35c.16-.12.3-.18.41-.18.2 0 .4.13.55.38l1.15 1.87a7.45 7.45 0 0 1-2.44 1.5 8.53 8.53 0 0 1-2.95.52zm19.68-10.4c-1.8.07-3.34.21-4.62.45-1.26.22-2.3.51-3.1.88-.8.36-1.37.8-1.74 1.3-.35.5-.53 1.05-.53 1.67 0 .58.1 1.1.3 1.52a2.9 2.9 0 0 0 .76 1.05c.34.27.73.46 1.17.6a6.13 6.13 0 0 0 1.45.17 7.3 7.3 0 0 0 3.5-.81 12.04 12.04 0 0 0 2.82-2.2v-4.62zm-12.65-9.1a12.72 12.72 0 0 1 3.99-2.66c1.42-.59 3-.88 4.72-.88 1.25 0 2.36.2 3.33.61a6.81 6.81 0 0 1 3.94 4.38c.33 1.04.5 2.19.5 3.43V93h-1.74a1.8 1.8 0 0 1-.88-.18c-.2-.13-.36-.38-.48-.74l-.44-2.12-1.72 1.46a9.48 9.48 0 0 1-3.74 1.7c-.69.15-1.46.23-2.3.23-.87 0-1.69-.12-2.45-.35a5.33 5.33 0 0 1-3.34-2.93 6.62 6.62 0 0 1-.49-2.64c0-.88.25-1.72.73-2.53a6.33 6.33 0 0 1 2.35-2.17c1.09-.63 2.5-1.15 4.25-1.54 1.74-.41 3.89-.65 6.42-.7v-1.75c0-1.73-.37-3.03-1.12-3.91-.75-.9-1.84-1.34-3.28-1.34-.97 0-1.78.12-2.44.37-.64.23-1.2.5-1.7.81l-1.22.82c-.34.23-.68.35-1.02.35-.26 0-.49-.07-.68-.2a1.88 1.88 0 0 1-.48-.53l-.7-1.25z"
    fill="#fff"
  />
  <path fill="#D42B21" d="M0 106.79h210V120H0z" />
</g>
<defs>
  <clipPath id="clip0"><path fill="#fff" d="M0 0h210v120H0z" /></clipPath>
</defs>
</svg></g><a href="https://ourworldindata.org/grapher/excess-deaths-cumulative-economist-who?country=~OWID_WRL" style="font-family:&quot;Playfair Display&quot;, Georgia, &quot;Times New Roman&quot;, serif" target="_blank" rel="noopener"><text font-size="21.60" x="15.0" y="33.8" fill="#555"><tspan x="15" y="33.791999999999994">Estimated cumulative excess deaths, from The Economist and the WHO,</tspan><tspan x="15" y="55.39199999999999">World</tspan></text></a><text x="15.0" y="76.2" style="font-size:14.4px;line-height:1.2" fill="#666"><tspan x="15" y="76.2">Cumulative difference between the number of reported or estimated deaths in 2020–2021 and the projected number of deaths</tspan><tspan x="15" y="93.4">for the same period based on previous years. Estimates differ because the models differ in the data and methods used.</tspan></text></g><g class="LineChart"><defs><clipPath id="boundsClip-12"><rect x="78.526" y="102.75999999999999" width="840" height="453.38"></rect></clipPath></defs><rect x="15" y="112.75999999999999" width="820" height="433.38" fill="transparent"></rect><g class="DualAxisView"><g class="HorizontalAxis"><line x1="88.5" y1="524.94" x2="88.5" y2="529.94" stroke="#999"></line><line x1="626.9" y1="524.94" x2="626.9" y2="529.94" stroke="#999"></line><line x1="250.1" y1="524.94" x2="250.1" y2="529.94" stroke="#999"></line><line x1="397" y1="524.94" x2="397" y2="529.94" stroke="#999"></line><text x="88.526" y="546.14" fill="#666" text-anchor="start" font-size="16.2">Jan 1, 2020</text><text x="626.93" y="546.14" fill="#666" text-anchor="end" font-size="16.2">Jan 3, 2022</text><text x="250.1" y="546.14" fill="#666" text-anchor="middle" font-size="16.2">Aug 8, 2020</text><text x="397" y="546.14" fill="#666" text-anchor="middle" font-size="16.2">Feb 24, 2021</text></g><g class="VerticalAxis"><text x="83.53" y="516.2" dy=".32em" text-anchor="end" fill="#666" font-size="16.2">0</text><text x="83.53" y="417.2" dy=".32em" text-anchor="end" fill="#666" font-size="16.2">5 million</text><text x="83.53" y="318.2" dy=".32em" text-anchor="end" fill="#666" font-size="16.2">10 million</text><text x="83.53" y="219.1" dy=".32em" text-anchor="end" fill="#666" font-size="16.2">15 million</text><text x="83.53" y="120.1" dy=".32em" text-anchor="end" fill="#666" font-size="16.2">20 million</text></g><g class="AxisGridLines horizontalLines"><line x1="88.53" y1="516.2" x2="626.93" y2="516.2" stroke="#999"></line><line x1="88.53" y1="417.2" x2="626.93" y2="417.2" stroke="#ddd" stroke-dasharray="3,2"></line><line x1="88.53" y1="318.2" x2="626.93" y2="318.2" stroke="#ddd" stroke-dasharray="3,2"></line><line x1="88.53" y1="219.1" x2="626.93" y2="219.1" stroke="#ddd" stroke-dasharray="3,2"></line><line x1="88.53" y1="120.1" x2="626.93" y2="120.1" stroke="#ddd" stroke-dasharray="3,2"></line></g></g><g clip-path="url(#boundsClip-12)"><g class="LineLabels" style="cursor:default"><g class="legendMark"><rect x="626.93" y="112.75999999999999" width="145.565" height="13.5" fill="#fff" opacity="0"></rect><text font-size="13.50" font-weight="400" x="630.9" y="124.5" fill="#b89285"><tspan x="630.93" y="124.505">Economist (upper)</tspan></text></g><g class="legendMark"><rect x="626.93" y="178.55" width="115.325" height="13.5" fill="#fff" opacity="0"></rect><text font-size="13.50" font-weight="400" x="630.9" y="190.3" fill="#ab8ec1"><tspan x="630.93" y="190.29500000000002">WHO (upper)</tspan></text></g><g class="legendMark"><rect x="626.93" y="194.05" width="151.505" height="13.5" fill="#fff" opacity="0"></rect><text font-size="13.50" font-weight="400" x="630.9" y="205.8" fill="#b13507"><tspan x="630.93" y="205.79500000000002">Economist (central)</tspan></text></g><g class="legendMark"><rect x="626.93" y="214.15" width="114.515" height="13.5" fill="#fff" opacity="0"></rect><text font-size="13.50" font-weight="400" x="630.9" y="225.9" fill="#6d3e91"><tspan x="630.93" y="225.895">WHO (mean)</tspan></text></g><g class="legendMark"><rect x="626.93" y="245.65" width="112.89500000000001" height="13.5" fill="#fff" opacity="0"></rect><text font-size="13.50" font-weight="400" x="630.9" y="257.4" fill="#ab8ec1"><tspan x="630.93" y="257.395">WHO (lower)</tspan></text></g><g class="legendMark"><rect x="626.93" y="260.25" width="143.135" height="13.5" fill="#fff" opacity="0"></rect><text font-size="13.50" font-weight="400" x="630.9" y="272.0" fill="#b89285"><tspan x="630.93" y="271.995">Economist (lower)</tspan></text></g><g class="legendMark"><rect x="626.93" y="400.85" width="208.07000000000002" height="13.5" fill="#fff" opacity="0"></rect><text font-size="13.50" font-weight="400" x="630.9" y="412.6" fill="#000000"><tspan x="630.93" y="412.595">Confirmed COVID-19 deaths</tspan></text></g></g><g class="Lines"><rect x="89" y="113" width="538" height="412" fill="rgba(255,255,255,0)" opacity="0"></rect><g><path stroke-linecap="round" stroke-linejoin="round" stroke="#ddd" d="M104 516.2L104.7 516.2L105.4 516.2L106.2 516.2L106.9 516.2L107.6 516.2L108.4 516.2L109.1 516.2L109.8 516.2L110.6 516.2L111.3 516.2L112 516.2L112.8 516.2L113.5 516.2L114.2 516.2L115 516.2L115.7 516.2L116.4 516.2L117.2 516.2L117.9 516.2L118.6 516.2L119.4 516.2L120.1 516.2L120.8 516.2L121.6 516.2L122.3 516.2L123 516.2L123.8 516.2L124.5 516.2L125.3 516.2L126 516.2L126.7 516.2L127.5 516.2L128.2 516.2L128.9 516.2L129.7 516.2L130.4 516.2L131.1 516.2L131.9 516.1L132.6 516.1L133.3 516.1L134.1 516.1L134.8 516.1L135.5 516.1L136.3 516.1L137 516.1L137.7 516.1L138.5 516.1L139.2 516.1L139.9 516.1L140.7 516.1L141.4 516.1L142.1 516.1L142.9 516.1L143.6 516.1L144.3 516L145.1 516L145.8 516L146.6 516L147.3 515.9L148 515.9L148.8 515.9L149.5 515.8L150.2 515.8L151 515.7L151.7 515.6L152.4 515.5L153.2 515.5L153.9 515.4L154.6 515.3L155.4 515.1L156.1 515L156.8 514.9L157.6 514.8L158.3 514.6L159 514.5L159.8 514.4L160.5 514.2L161.2 514L162 513.9L162.7 513.8L163.4 513.6L164.2 513.5L164.9 513.4L165.7 513.2L166.4 513L167.1 512.8L167.9 512.7L168.6 512.6L169.3 512.5L170.1 512.3L170.8 512.2L171.5 512L172.3 511.9L173 511.8L173.7 511.7L174.5 511.6L175.2 511.5L175.9 511.3L176.7 511.2L177.4 511.1L178.1 511L178.9 510.9L179.6 510.8L180.3 510.7L181.1 510.5L181.8 510.4L182.5 510.3L183.3 510.2L184 510.1L184.7 510L185.5 509.9L186.2 509.8L187 509.7L187.7 509.6L188.4 509.5L189.2 509.4L189.9 509.3L190.6 509.2L191.4 509.1L192.1 509L192.8 508.9L193.6 508.8L194.3 508.7L195 508.7L195.8 508.6L196.5 508.5L197.2 508.4L198 508.3L198.7 508.2L199.4 508.2L200.2 508.1L200.9 508L201.6 507.9L202.4 507.8L203.1 507.7L203.8 507.6L204.6 507.5L205.3 507.4L206 507.3L206.8 507.2L207.5 507.1L208.3 507L209 506.9L209.7 506.9L210.5 506.8L211.2 506.6L211.9 506.5L212.7 506.4L213.4 506.3L214.1 506.2L214.9 506.1L215.6 506L216.3 505.9L217.1 505.8L217.8 505.7L218.5 505.6L219.3 505.5L220 505.5L220.7 505.4L221.5 505.3L222.2 505.2L222.9 505.1L223.7 505L224.4 504.9L225.1 504.8L225.9 504.7L226.6 504.6L227.4 504.5L228.1 504.3L228.8 504.2L229.6 504.1L230.3 504L231 504L231.8 503.8L232.5 503.7L233.2 503.6L234 503.5L234.7 503.3L235.4 503.2L236.2 503.2L236.9 503L237.6 502.9L238.4 502.8L239.1 502.6L239.8 502.5L240.6 502.4L241.3 502.3L242 502.2L242.8 502L243.5 501.9L244.2 501.8L245 501.7L245.7 501.6L246.4 501.5L247.2 501.3L247.9 501.2L248.7 501L249.4 500.9L250.1 500.8L250.9 500.7L251.6 500.6L252.3 500.5L253.1 500.3L253.8 500.2L254.5 500.1L255.3 499.9L256 499.8L256.7 499.7L257.5 499.6L258.2 499.5L258.9 499.4L259.7 499.2L260.4 499.1L261.1 499L261.9 498.9L262.6 498.8L263.3 498.7L264.1 498.6L264.8 498.4L265.5 498.3L266.3 498.2L267 498.2L267.7 498L268.5 497.9L269.2 497.8L270 497.7L270.7 497.6L271.4 497.5L272.2 497.3L272.9 497.2L273.6 497.1L274.4 496.9L275.1 496.8L275.8 496.7L276.6 496.6L277.3 496.6L278 496.4L278.8 496.3L279.5 496.2L280.2 496.1L281 496L281.7 495.9L282.4 495.8L283.2 495.7L283.9 495.6L284.6 495.4L285.4 495.3L286.1 495.2L286.8 495.1L287.6 495.1L288.3 494.9L289.1 494.8L289.8 494.6L290.5 494.5L291.3 494.4L292 494.4L292.7 494.2L293.5 494.1L294.2 494L294.9 493.9L295.7 493.7L296.4 493.6L297.1 493.5L297.9 493.5L298.6 493.4L299.3 493.2L300.1 493.1L300.8 493L301.5 492.9L302.3 492.8L303 492.7L303.7 492.6L304.5 492.4L305.2 492.3L305.9 492.2L306.7 492.1L307.4 492L308.1 491.9L308.9 491.7L309.6 491.6L310.4 491.4L311.1 491.3L311.8 491.1L312.6 491L313.3 490.9L314 490.7L314.8 490.5L315.5 490.4L316.2 490.2L317 490L317.7 489.9L318.4 489.7L319.2 489.5L319.9 489.3L320.6 489.1L321.4 488.9L322.1 488.8L322.8 488.6L323.6 488.5L324.3 488.3L325 488L325.8 487.8L326.5 487.6L327.2 487.4L328 487.2L328.7 487.1L329.4 486.8L330.2 486.6L330.9 486.4L331.7 486.1L332.4 485.9L333.1 485.8L333.9 485.6L334.6 485.4L335.3 485.1L336.1 484.9L336.8 484.6L337.5 484.4L338.3 484.3L339 484.1L339.7 483.8L340.5 483.6L341.2 483.3L341.9 483.1L342.7 482.9L343.4 482.7L344.1 482.5L344.9 482.3L345.6 482L346.3 481.7L347.1 481.5L347.8 481.2L348.5 481.1L349.3 480.9L350 480.6L350.8 480.3L351.5 480.1L352.2 479.9L353 479.8L353.7 479.6L354.4 479.4L355.2 479.1L355.9 478.8L356.6 478.5L357.4 478.4L358.1 478.2L358.8 478L359.6 477.8L360.3 477.5L361 477.2L361.8 476.9L362.5 476.6L363.2 476.4L364 476.2L364.7 476L365.4 475.6L366.2 475.3L366.9 475L367.6 474.7L368.4 474.4L369.1 474.2L369.8 474L370.6 473.7L371.3 473.3L372.1 473L372.8 472.7L373.5 472.4L374.3 472.2L375 472L375.7 471.6L376.5 471.3L377.2 471L377.9 470.6L378.7 470.4L379.4 470.2L380.1 470L380.9 469.7L381.6 469.4L382.3 469.1L383.1 468.8L383.8 468.6L384.5 468.4L385.3 468.2L386 467.9L386.7 467.6L387.5 467.4L388.2 467.1L388.9 466.9L389.7 466.8L390.4 466.6L391.1 466.4L391.9 466.2L392.6 465.9L393.4 465.7L394.1 465.5L394.8 465.4L395.6 465.2L396.3 465L397 464.8L397.8 464.5L398.5 464.3L399.2 464.2L400 464L400.7 463.9L401.4 463.7L402.2 463.5L402.9 463.2L403.6 463L404.4 462.9L405.1 462.8L405.8 462.6L406.6 462.4L407.3 462.2L408 462L408.8 461.8L409.5 461.6L410.2 461.5L411 461.4L411.7 461.2L412.4 460.9L413.2 460.7L413.9 460.5L414.7 460.3L415.4 460.2L416.1 460L416.9 459.8L417.6 459.6L418.3 459.4L419.1 459.1L419.8 458.9L420.5 458.8L421.3 458.6L422 458.3L422.7 458.1L423.5 457.8L424.2 457.6L424.9 457.5L425.7 457.3L426.4 457.1L427.1 456.9L427.9 456.6L428.6 456.3L429.3 456L430.1 455.8L430.8 455.6L431.5 455.4L432.3 455.1L433 454.8L433.8 454.6L434.5 454.3L435.2 454L436 453.9L436.7 453.6L437.4 453.4L438.2 453.1L438.9 452.8L439.6 452.5L440.4 452.2L441.1 452L441.8 451.8L442.6 451.5L443.3 451.2L444 450.9L444.8 450.6L445.5 450.3L446.2 450.1L447 449.9L447.7 449.6L448.4 449.3L449.2 449L449.9 448.7L450.6 448.5L451.4 448.3L452.1 448L452.8 447.8L453.6 447.5L454.3 447.2L455.1 447L455.8 446.7L456.5 446.5L457.3 446.3L458 446L458.7 445.7L459.5 445.5L460.2 445.2L460.9 445L461.7 444.8L462.4 444.6L463.1 444.4L463.9 444.1L464.6 443.9L465.3 443.6L466.1 443.4L466.8 443.2L467.5 443.1L468.3 442.8L469 442.5L469.7 442.3L470.5 442.1L471.2 441.9L471.9 441.8L472.7 441.6L473.4 441.4L474.1 441.2L474.9 440.9L475.6 440.7L476.4 440.5L477.1 440.3L477.8 440.1L478.6 439.9L479.3 439.7L480 439.5L480.8 439.3L481.5 439.2L482.2 439.1L483 438.9L483.7 438.7L484.4 438.6L485.2 438.4L485.9 438.2L486.6 438L487.4 437.9L488.1 437.8L488.8 437.6L489.6 437.5L490.3 437.3L491 437.1L491.8 437L492.5 436.8L493.2 436.7L494 436.5L494.7 436.4L495.5 436.2L496.2 436L496.9 435.9L497.7 435.7L498.4 435.6L499.1 435.4L499.9 435.2L500.6 435.1L501.3 434.9L502.1 434.8L502.8 434.6L503.5 434.5L504.3 434.1L505 433.9L505.7 433.7L506.5 433.6L507.2 433.4L507.9 433.2L508.7 433.1L509.4 432.9L510.1 432.7L510.9 432.5L511.6 432.3L512.3 432.1L513.1 432L513.8 431.8L514.5 431.6L515.3 431.4L516 431.2L516.8 431L517.5 430.8L518.2 430.6L519 430.5L519.7 430.2L520.4 430L521.2 429.8L521.9 429.6L522.6 429.4L523.4 429.3L524.1 429.1L524.8 428.9L525.6 428.7L526.3 428.4L527 428.2L527.8 428.1L528.5 427.9L529.2 427.7L530 427.5L530.7 427.3L531.4 427L532.2 426.8L532.9 426.7L533.6 426.5L534.4 426.3L535.1 426.2L535.8 425.9L536.6 425.7L537.3 425.5L538.1 425.3L538.8 425.2L539.5 425L540.3 424.8L541 424.6L541.7 424.4L542.5 424.2L543.2 424.1L543.9 423.9L544.7 423.8L545.4 423.6L546.1 423.4L546.9 423.2L547.6 423L548.3 422.8L549.1 422.7L549.8 422.6L550.5 422.4L551.3 422.2L552 422L552.7 421.8L553.5 421.7L554.2 421.6L554.9 421.4L555.7 421.3L556.4 421.1L557.2 420.9L557.9 420.7L558.6 420.6L559.4 420.5L560.1 420.4L560.8 420.2L561.6 420.1L562.3 419.9L563 419.7L563.8 419.6L564.5 419.5L565.2 419.4L566 419.3L566.7 419.1L567.4 418.9L568.2 418.8L568.9 418.7L569.6 418.6L570.4 418.5L571.1 418.3L571.8 418.1L572.6 418L573.3 417.8L574 417.7L574.8 417.6L575.5 417.5L576.2 417.3L577 417.1L577.7 417L578.5 416.8L579.2 416.7L579.9 416.6L580.7 416.5L581.4 416.3L582.1 416.2L582.9 416L583.6 415.8L584.3 415.7L585.1 415.6L585.8 415.5L586.5 415.3L587.3 415.2L588 415L588.7 414.8L589.5 414.7L590.2 414.6L590.9 414.5L591.7 414.3L592.4 414.1L593.1 414L593.9 413.8L594.6 413.7L595.3 413.6L596.1 413.5L596.8 413.3L597.5 413.1L598.3 413L599 412.8L599.8 412.7L600.5 412.6L601.2 412.5L602 412.3L602.7 412.1L603.4 411.9L604.2 411.7L604.9 411.6L605.6 411.5L606.4 411.3L607.1 411.2L607.8 411L608.6 410.9L609.3 410.7L610 410.6L610.8 410.5L611.5 410.4L612.2 410.2L613 410L613.7 409.9L614.4 409.7L615.2 409.6L615.9 409.5L616.6 409.4L617.4 409.2L618.1 409L618.9 408.9L619.6 408.8L620.3 408.7L621.1 408.6L621.8 408.5L622.5 408.3L623.3 408.2L624 408L624.7 407.9L625.5 407.8L626.2 407.7L626.9 407.6" fill="none" stroke-width="1"></path></g><g><path stroke-linecap="round" stroke-linejoin="round" stroke="#ddd" d="M88.5 516.1L92.2 516L97.3 515.9L102.5 515.8L107.6 515.8L112.8 515.5L117.9 515.6L123 515.6L128.2 515.7L133.3 516L138.5 515.7L143.6 515.2L148.8 514.5L153.9 513.4L159 512L164.2 510.5L169.3 509.4L174.5 508.7L179.6 507.3L184.7 505.8L189.9 504.4L195 503L200.2 500.7L205.3 498.6L210.5 496.7L215.6 494.5L220.7 491.1L225.9 487.1L231 483.1L236.2 479.2L241.3 475.1L246.4 471.7L251.6 468.5L256.7 465.3L261.9 462.3L267 459.4L272.2 455.8L277.3 452.4L282.4 449L287.6 445.9L292.7 442.9L297.9 439.2L303 435.7L308.1 432.4L313.3 428.5L318.4 424.4L323.6 420.3L328.7 416.2L333.9 411.9L339 407.5L344.1 403L349.3 398.6L354.4 393.5L359.6 389.3L364.7 384.7L369.8 380.5L375 376.7L380.1 373.2L385.3 370.2L390.4 367.4L395.6 364.8L400.7 362.1L405.8 359.3L411 356L416.1 352.9L421.3 348.3L426.4 343.3L431.5 338L436.7 331.7L441.8 323.7L447 314.7L452.1 305.5L457.3 292.8L462.4 283.3L467.5 275.5L472.7 267.5L477.8 261.4L483 255.3L488.1 249.9L493.2 244.2L498.4 237.9L503.5 231.7L508.7 225.1L513.8 217.3L519 210L524.1 202.4L529.2 194.8L534.4 188.1L539.5 182.3L544.7 176.7L549.8 171.5L554.9 166.5L560.1 161.9L565.2 157.2L570.4 152.7L575.5 148.2L580.7 143.7L585.8 139.3L590.9 135.4L596.1 131.6L601.2 127.7L606.4 124.3L611.5 121.1L616.6 118L621.8 115.4L626.9 112.8" fill="none" stroke-width="1"></path></g><g><path stroke-linecap="round" stroke-linejoin="round" stroke="#ddd" d="M88.5 516.4L92.2 516.6L97.3 516.8L102.5 517.1L107.6 517.5L112.8 517.7L117.9 518.1L123 518.9L128.2 519.6L133.3 520.5L138.5 520.7L143.6 520.8L148.8 520.7L153.9 520.6L159 520.1L164.2 519.5L169.3 519.5L174.5 519.6L179.6 519L184.7 518.2L189.9 517.6L195 516.8L200.2 515.3L205.3 514.2L210.5 512.8L215.6 511.1L220.7 509.1L225.9 507.1L231 505.1L236.2 503L241.3 500.8L246.4 498.9L251.6 496.1L256.7 493.2L261.9 490.4L267 488.8L272.2 487.1L277.3 485.4L282.4 483.2L287.6 481.2L292.7 479.3L297.9 477.2L303 475L308.1 472.5L313.3 469.4L318.4 466.1L323.6 462.9L328.7 459.7L333.9 456.2L339 452.7L344.1 449.4L349.3 446L354.4 442.1L359.6 439.3L364.7 436.4L369.8 433.5L375 431L380.1 428.8L385.3 427L390.4 425.5L395.6 424.1L400.7 422.5L405.8 420.9L411 419.2L416.1 417.2L421.3 414.6L426.4 411.2L431.5 407.2L436.7 402.9L441.8 398.4L447 394L452.1 388L457.3 380.7L462.4 373.7L467.5 368.5L472.7 365.4L477.8 362.6L483 359.7L488.1 356.9L493.2 353.8L498.4 350.8L503.5 347.7L508.7 344.1L513.8 339.4L519 335L524.1 330.7L529.2 326.4L534.4 322.2L539.5 318L544.7 314.2L549.8 310.6L554.9 307.1L560.1 303.9L565.2 300.7L570.4 297.5L575.5 294.2L580.7 291L585.8 287.8L590.9 284.8L596.1 281.8L601.2 278.7L606.4 276.1L611.5 273.7L616.6 271.3L621.8 269.1L626.9 267" fill="none" stroke-width="1"></path></g><g><path stroke-linecap="round" stroke-linejoin="round" stroke="#ddd" d="M88.5 516.3L92.2 516.4L97.3 516.5L102.5 516.6L107.6 516.8L112.8 516.7L117.9 516.9L123 517.3L128.2 517.8L133.3 518.4L138.5 518.6L143.6 518.4L148.8 517.9L153.9 517.2L159 516.3L164.2 515.5L169.3 515L174.5 514.7L179.6 513.7L184.7 512.6L189.9 511.5L195 510.5L200.2 509L205.3 507.4L210.5 505.5L215.6 503.2L220.7 500.8L225.9 498.1L231 495.3L236.2 492.1L241.3 489.2L246.4 486.5L251.6 483.8L256.7 481.3L261.9 478.6L267 476.2L272.2 473.4L277.3 470.8L282.4 468.2L287.6 466L292.7 463.5L297.9 461.1L303 458.4L308.1 455.6L313.3 452.1L318.4 448.5L323.6 444.8L328.7 441.1L333.9 437.4L339 433.7L344.1 430.1L349.3 426.6L354.4 422.4L359.6 418.8L364.7 415.1L369.8 411.5L375 408.2L380.1 405.5L385.3 403.2L390.4 401L395.6 399L400.7 396.9L405.8 394.7L411 392L416.1 389.4L421.3 385.5L426.4 380.7L431.5 375.5L436.7 369.8L441.8 363.6L447 355.5L452.1 347.9L457.3 340L462.4 332.2L467.5 326.7L472.7 321.6L477.8 316.8L483 313.1L488.1 309.4L493.2 305.8L498.4 301.4L503.5 296.8L508.7 291.6L513.8 285.6L519 280.3L524.1 274.9L529.2 269.2L534.4 264L539.5 258.8L544.7 254.3L549.8 250L554.9 246L560.1 242.1L565.2 238.2L570.4 234.5L575.5 230.7L580.7 227L585.8 223.4L590.9 220.2L596.1 216.8L601.2 213.4L606.4 210.5L611.5 207.9L616.6 204.9L621.8 202.2L626.9 199.5" fill="none" stroke-width="1"></path></g><g><path stroke-linecap="round" stroke-linejoin="round" stroke="#ddd" d="M110.6 513.2L131.9 515.5L154.6 519.2L176.7 523.9L199.4 524.9L221.5 518.8L244.2 508L267 496.6L289.1 485.9L311.8 473.1L333.9 457.2L356.6 438.3L379.4 419.3L400 412.8L422.7 402.3L444.8 387.2L467.5 353.7L489.6 323.8L512.3 303.3L535.1 287.1L557.2 276.1L579.9 266L602 258.3L624.7 252.4" fill="none" stroke-width="1"></path></g><g><path stroke-linecap="round" stroke-linejoin="round" stroke="#ddd" d="M110.6 507.4L131.9 508L154.6 510.3L176.7 514.2L199.4 513.2L221.5 505.8L244.2 493.7L267 480.6L289.1 467.7L311.8 454.4L333.9 436.4L356.6 415.8L379.4 395.1L400 386.3L422.7 375L444.8 357.2L467.5 321.4L489.6 288.5L512.3 266.8L535.1 248.9L557.2 236.4L579.9 223.5L602 206.5L624.7 186.6" fill="none" stroke-width="1"></path></g><g><path stroke-linecap="round" stroke-linejoin="round" stroke="#ddd" d="M110.6 510.5L131.9 512L154.6 514.8L176.7 519.3L199.4 519.2L221.5 512.6L244.2 501.1L267 488.9L289.1 477.1L311.8 463.8L333.9 447.1L356.6 427.4L379.4 407.7L400 399.7L422.7 389.4L444.8 372.6L467.5 338L489.6 306.9L512.3 285.6L535.1 268.8L557.2 256.8L579.9 244.5L602 232.5L624.7 220.9" fill="none" stroke-width="1"></path></g><g><path fill="none" stroke-linecap="butt" stroke-linejoin="round" stroke="#fff" stroke-width="2.5" d="M104 516.2L104.7 516.2L105.4 516.2L106.2 516.2L106.9 516.2L107.6 516.2L108.4 516.2L109.1 516.2L109.8 516.2L110.6 516.2L111.3 516.2L112 516.2L112.8 516.2L113.5 516.2L114.2 516.2L115 516.2L115.7 516.2L116.4 516.2L117.2 516.2L117.9 516.2L118.6 516.2L119.4 516.2L120.1 516.2L120.8 516.2L121.6 516.2L122.3 516.2L123 516.2L123.8 516.2L124.5 516.2L125.3 516.2L126 516.2L126.7 516.2L127.5 516.2L128.2 516.2L128.9 516.2L129.7 516.2L130.4 516.2L131.1 516.2L131.9 516.1L132.6 516.1L133.3 516.1L134.1 516.1L134.8 516.1L135.5 516.1L136.3 516.1L137 516.1L137.7 516.1L138.5 516.1L139.2 516.1L139.9 516.1L140.7 516.1L141.4 516.1L142.1 516.1L142.9 516.1L143.6 516.1L144.3 516L145.1 516L145.8 516L146.6 516L147.3 515.9L148 515.9L148.8 515.9L149.5 515.8L150.2 515.8L151 515.7L151.7 515.6L152.4 515.5L153.2 515.5L153.9 515.4L154.6 515.3L155.4 515.1L156.1 515L156.8 514.9L157.6 514.8L158.3 514.6L159 514.5L159.8 514.4L160.5 514.2L161.2 514L162 513.9L162.7 513.8L163.4 513.6L164.2 513.5L164.9 513.4L165.7 513.2L166.4 513L167.1 512.8L167.9 512.7L168.6 512.6L169.3 512.5L170.1 512.3L170.8 512.2L171.5 512L172.3 511.9L173 511.8L173.7 511.7L174.5 511.6L175.2 511.5L175.9 511.3L176.7 511.2L177.4 511.1L178.1 511L178.9 510.9L179.6 510.8L180.3 510.7L181.1 510.5L181.8 510.4L182.5 510.3L183.3 510.2L184 510.1L184.7 510L185.5 509.9L186.2 509.8L187 509.7L187.7 509.6L188.4 509.5L189.2 509.4L189.9 509.3L190.6 509.2L191.4 509.1L192.1 509L192.8 508.9L193.6 508.8L194.3 508.7L195 508.7L195.8 508.6L196.5 508.5L197.2 508.4L198 508.3L198.7 508.2L199.4 508.2L200.2 508.1L200.9 508L201.6 507.9L202.4 507.8L203.1 507.7L203.8 507.6L204.6 507.5L205.3 507.4L206 507.3L206.8 507.2L207.5 507.1L208.3 507L209 506.9L209.7 506.9L210.5 506.8L211.2 506.6L211.9 506.5L212.7 506.4L213.4 506.3L214.1 506.2L214.9 506.1L215.6 506L216.3 505.9L217.1 505.8L217.8 505.7L218.5 505.6L219.3 505.5L220 505.5L220.7 505.4L221.5 505.3L222.2 505.2L222.9 505.1L223.7 505L224.4 504.9L225.1 504.8L225.9 504.7L226.6 504.6L227.4 504.5L228.1 504.3L228.8 504.2L229.6 504.1L230.3 504L231 504L231.8 503.8L232.5 503.7L233.2 503.6L234 503.5L234.7 503.3L235.4 503.2L236.2 503.2L236.9 503L237.6 502.9L238.4 502.8L239.1 502.6L239.8 502.5L240.6 502.4L241.3 502.3L242 502.2L242.8 502L243.5 501.9L244.2 501.8L245 501.7L245.7 501.6L246.4 501.5L247.2 501.3L247.9 501.2L248.7 501L249.4 500.9L250.1 500.8L250.9 500.7L251.6 500.6L252.3 500.5L253.1 500.3L253.8 500.2L254.5 500.1L255.3 499.9L256 499.8L256.7 499.7L257.5 499.6L258.2 499.5L258.9 499.4L259.7 499.2L260.4 499.1L261.1 499L261.9 498.9L262.6 498.8L263.3 498.7L264.1 498.6L264.8 498.4L265.5 498.3L266.3 498.2L267 498.2L267.7 498L268.5 497.9L269.2 497.8L270 497.7L270.7 497.6L271.4 497.5L272.2 497.3L272.9 497.2L273.6 497.1L274.4 496.9L275.1 496.8L275.8 496.7L276.6 496.6L277.3 496.6L278 496.4L278.8 496.3L279.5 496.2L280.2 496.1L281 496L281.7 495.9L282.4 495.8L283.2 495.7L283.9 495.6L284.6 495.4L285.4 495.3L286.1 495.2L286.8 495.1L287.6 495.1L288.3 494.9L289.1 494.8L289.8 494.6L290.5 494.5L291.3 494.4L292 494.4L292.7 494.2L293.5 494.1L294.2 494L294.9 493.9L295.7 493.7L296.4 493.6L297.1 493.5L297.9 493.5L298.6 493.4L299.3 493.2L300.1 493.1L300.8 493L301.5 492.9L302.3 492.8L303 492.7L303.7 492.6L304.5 492.4L305.2 492.3L305.9 492.2L306.7 492.1L307.4 492L308.1 491.9L308.9 491.7L309.6 491.6L310.4 491.4L311.1 491.3L311.8 491.1L312.6 491L313.3 490.9L314 490.7L314.8 490.5L315.5 490.4L316.2 490.2L317 490L317.7 489.9L318.4 489.7L319.2 489.5L319.9 489.3L320.6 489.1L321.4 488.9L322.1 488.8L322.8 488.6L323.6 488.5L324.3 488.3L325 488L325.8 487.8L326.5 487.6L327.2 487.4L328 487.2L328.7 487.1L329.4 486.8L330.2 486.6L330.9 486.4L331.7 486.1L332.4 485.9L333.1 485.8L333.9 485.6L334.6 485.4L335.3 485.1L336.1 484.9L336.8 484.6L337.5 484.4L338.3 484.3L339 484.1L339.7 483.8L340.5 483.6L341.2 483.3L341.9 483.1L342.7 482.9L343.4 482.7L344.1 482.5L344.9 482.3L345.6 482L346.3 481.7L347.1 481.5L347.8 481.2L348.5 481.1L349.3 480.9L350 480.6L350.8 480.3L351.5 480.1L352.2 479.9L353 479.8L353.7 479.6L354.4 479.4L355.2 479.1L355.9 478.8L356.6 478.5L357.4 478.4L358.1 478.2L358.8 478L359.6 477.8L360.3 477.5L361 477.2L361.8 476.9L362.5 476.6L363.2 476.4L364 476.2L364.7 476L365.4 475.6L366.2 475.3L366.9 475L367.6 474.7L368.4 474.4L369.1 474.2L369.8 474L370.6 473.7L371.3 473.3L372.1 473L372.8 472.7L373.5 472.4L374.3 472.2L375 472L375.7 471.6L376.5 471.3L377.2 471L377.9 470.6L378.7 470.4L379.4 470.2L380.1 470L380.9 469.7L381.6 469.4L382.3 469.1L383.1 468.8L383.8 468.6L384.5 468.4L385.3 468.2L386 467.9L386.7 467.6L387.5 467.4L388.2 467.1L388.9 466.9L389.7 466.8L390.4 466.6L391.1 466.4L391.9 466.2L392.6 465.9L393.4 465.7L394.1 465.5L394.8 465.4L395.6 465.2L396.3 465L397 464.8L397.8 464.5L398.5 464.3L399.2 464.2L400 464L400.7 463.9L401.4 463.7L402.2 463.5L402.9 463.2L403.6 463L404.4 462.9L405.1 462.8L405.8 462.6L406.6 462.4L407.3 462.2L408 462L408.8 461.8L409.5 461.6L410.2 461.5L411 461.4L411.7 461.2L412.4 460.9L413.2 460.7L413.9 460.5L414.7 460.3L415.4 460.2L416.1 460L416.9 459.8L417.6 459.6L418.3 459.4L419.1 459.1L419.8 458.9L420.5 458.8L421.3 458.6L422 458.3L422.7 458.1L423.5 457.8L424.2 457.6L424.9 457.5L425.7 457.3L426.4 457.1L427.1 456.9L427.9 456.6L428.6 456.3L429.3 456L430.1 455.8L430.8 455.6L431.5 455.4L432.3 455.1L433 454.8L433.8 454.6L434.5 454.3L435.2 454L436 453.9L436.7 453.6L437.4 453.4L438.2 453.1L438.9 452.8L439.6 452.5L440.4 452.2L441.1 452L441.8 451.8L442.6 451.5L443.3 451.2L444 450.9L444.8 450.6L445.5 450.3L446.2 450.1L447 449.9L447.7 449.6L448.4 449.3L449.2 449L449.9 448.7L450.6 448.5L451.4 448.3L452.1 448L452.8 447.8L453.6 447.5L454.3 447.2L455.1 447L455.8 446.7L456.5 446.5L457.3 446.3L458 446L458.7 445.7L459.5 445.5L460.2 445.2L460.9 445L461.7 444.8L462.4 444.6L463.1 444.4L463.9 444.1L464.6 443.9L465.3 443.6L466.1 443.4L466.8 443.2L467.5 443.1L468.3 442.8L469 442.5L469.7 442.3L470.5 442.1L471.2 441.9L471.9 441.8L472.7 441.6L473.4 441.4L474.1 441.2L474.9 440.9L475.6 440.7L476.4 440.5L477.1 440.3L477.8 440.1L478.6 439.9L479.3 439.7L480 439.5L480.8 439.3L481.5 439.2L482.2 439.1L483 438.9L483.7 438.7L484.4 438.6L485.2 438.4L485.9 438.2L486.6 438L487.4 437.9L488.1 437.8L488.8 437.6L489.6 437.5L490.3 437.3L491 437.1L491.8 437L492.5 436.8L493.2 436.7L494 436.5L494.7 436.4L495.5 436.2L496.2 436L496.9 435.9L497.7 435.7L498.4 435.6L499.1 435.4L499.9 435.2L500.6 435.1L501.3 434.9L502.1 434.8L502.8 434.6L503.5 434.5L504.3 434.1L505 433.9L505.7 433.7L506.5 433.6L507.2 433.4L507.9 433.2L508.7 433.1L509.4 432.9L510.1 432.7L510.9 432.5L511.6 432.3L512.3 432.1L513.1 432L513.8 431.8L514.5 431.6L515.3 431.4L516 431.2L516.8 431L517.5 430.8L518.2 430.6L519 430.5L519.7 430.2L520.4 430L521.2 429.8L521.9 429.6L522.6 429.4L523.4 429.3L524.1 429.1L524.8 428.9L525.6 428.7L526.3 428.4L527 428.2L527.8 428.1L528.5 427.9L529.2 427.7L530 427.5L530.7 427.3L531.4 427L532.2 426.8L532.9 426.7L533.6 426.5L534.4 426.3L535.1 426.2L535.8 425.9L536.6 425.7L537.3 425.5L538.1 425.3L538.8 425.2L539.5 425L540.3 424.8L541 424.6L541.7 424.4L542.5 424.2L543.2 424.1L543.9 423.9L544.7 423.8L545.4 423.6L546.1 423.4L546.9 423.2L547.6 423L548.3 422.8L549.1 422.7L549.8 422.6L550.5 422.4L551.3 422.2L552 422L552.7 421.8L553.5 421.7L554.2 421.6L554.9 421.4L555.7 421.3L556.4 421.1L557.2 420.9L557.9 420.7L558.6 420.6L559.4 420.5L560.1 420.4L560.8 420.2L561.6 420.1L562.3 419.9L563 419.7L563.8 419.6L564.5 419.5L565.2 419.4L566 419.3L566.7 419.1L567.4 418.9L568.2 418.8L568.9 418.7L569.6 418.6L570.4 418.5L571.1 418.3L571.8 418.1L572.6 418L573.3 417.8L574 417.7L574.8 417.6L575.5 417.5L576.2 417.3L577 417.1L577.7 417L578.5 416.8L579.2 416.7L579.9 416.6L580.7 416.5L581.4 416.3L582.1 416.2L582.9 416L583.6 415.8L584.3 415.7L585.1 415.6L585.8 415.5L586.5 415.3L587.3 415.2L588 415L588.7 414.8L589.5 414.7L590.2 414.6L590.9 414.5L591.7 414.3L592.4 414.1L593.1 414L593.9 413.8L594.6 413.7L595.3 413.6L596.1 413.5L596.8 413.3L597.5 413.1L598.3 413L599 412.8L599.8 412.7L600.5 412.6L601.2 412.5L602 412.3L602.7 412.1L603.4 411.9L604.2 411.7L604.9 411.6L605.6 411.5L606.4 411.3L607.1 411.2L607.8 411L608.6 410.9L609.3 410.7L610 410.6L610.8 410.5L611.5 410.4L612.2 410.2L613 410L613.7 409.9L614.4 409.7L615.2 409.6L615.9 409.5L616.6 409.4L617.4 409.2L618.1 409L618.9 408.9L619.6 408.8L620.3 408.7L621.1 408.6L621.8 408.5L622.5 408.3L623.3 408.2L624 408L624.7 407.9L625.5 407.8L626.2 407.7L626.9 407.6"></path><polyline points="104.00,516.20 104.70,516.20 105.40,516.20 106.20,516.20 106.90,516.20 107.60,516.20 108.40,516.20 109.10,516.20 109.80,516.20 110.60,516.20 111.30,516.20 112.00,516.20 112.80,516.20 113.50,516.20 114.20,516.20 115.00,516.20 115.70,516.20 116.40,516.20 117.20,516.20 117.90,516.20 118.60,516.20 119.40,516.20 120.10,516.20 120.80,516.20 121.60,516.20 122.30,516.20 123.00,516.20 123.80,516.20 124.50,516.20 125.30,516.20 126.00,516.20 126.70,516.20 127.50,516.20 128.20,516.20 128.90,516.20 129.70,516.20 130.40,516.20 131.10,516.20 131.90,516.10 132.60,516.10 133.30,516.10 134.10,516.10 134.80,516.10 135.50,516.10 136.30,516.10 137.00,516.10 137.70,516.10 138.50,516.10 139.20,516.10 139.90,516.10 140.70,516.10 141.40,516.10 142.10,516.10 142.90,516.10 143.60,516.10 144.30,516.00 145.10,516.00 145.80,516.00 146.60,516.00 147.30,515.90 148.00,515.90 148.80,515.90 149.50,515.80 150.20,515.80 151.00,515.70 151.70,515.60 152.40,515.50 153.20,515.50 153.90,515.40 154.60,515.30 155.40,515.10 156.10,515.00 156.80,514.90 157.60,514.80 158.30,514.60 159.00,514.50 159.80,514.40 160.50,514.20 161.20,514.00 162.00,513.90 162.70,513.80 163.40,513.60 164.20,513.50 164.90,513.40 165.70,513.20 166.40,513.00 167.10,512.80 167.90,512.70 168.60,512.60 169.30,512.50 170.10,512.30 170.80,512.20 171.50,512.00 172.30,511.90 173.00,511.80 173.70,511.70 174.50,511.60 175.20,511.50 175.90,511.30 176.70,511.20 177.40,511.10 178.10,511.00 178.90,510.90 179.60,510.80 180.30,510.70 181.10,510.50 181.80,510.40 182.50,510.30 183.30,510.20 184.00,510.10 184.70,510.00 185.50,509.90 186.20,509.80 187.00,509.70 187.70,509.60 188.40,509.50 189.20,509.40 189.90,509.30 190.60,509.20 191.40,509.10 192.10,509.00 192.80,508.90 193.60,508.80 194.30,508.70 195.00,508.70 195.80,508.60 196.50,508.50 197.20,508.40 198.00,508.30 198.70,508.20 199.40,508.20 200.20,508.10 200.90,508.00 201.60,507.90 202.40,507.80 203.10,507.70 203.80,507.60 204.60,507.50 205.30,507.40 206.00,507.30 206.80,507.20 207.50,507.10 208.30,507.00 209.00,506.90 209.70,506.90 210.50,506.80 211.20,506.60 211.90,506.50 212.70,506.40 213.40,506.30 214.10,506.20 214.90,506.10 215.60,506.00 216.30,505.90 217.10,505.80 217.80,505.70 218.50,505.60 219.30,505.50 220.00,505.50 220.70,505.40 221.50,505.30 222.20,505.20 222.90,505.10 223.70,505.00 224.40,504.90 225.10,504.80 225.90,504.70 226.60,504.60 227.40,504.50 228.10,504.30 228.80,504.20 229.60,504.10 230.30,504.00 231.00,504.00 231.80,503.80 232.50,503.70 233.20,503.60 234.00,503.50 234.70,503.30 235.40,503.20 236.20,503.20 236.90,503.00 237.60,502.90 238.40,502.80 239.10,502.60 239.80,502.50 240.60,502.40 241.30,502.30 242.00,502.20 242.80,502.00 243.50,501.90 244.20,501.80 245.00,501.70 245.70,501.60 246.40,501.50 247.20,501.30 247.90,501.20 248.70,501.00 249.40,500.90 250.10,500.80 250.90,500.70 251.60,500.60 252.30,500.50 253.10,500.30 253.80,500.20 254.50,500.10 255.30,499.90 256.00,499.80 256.70,499.70 257.50,499.60 258.20,499.50 258.90,499.40 259.70,499.20 260.40,499.10 261.10,499.00 261.90,498.90 262.60,498.80 263.30,498.70 264.10,498.60 264.80,498.40 265.50,498.30 266.30,498.20 267.00,498.20 267.70,498.00 268.50,497.90 269.20,497.80 270.00,497.70 270.70,497.60 271.40,497.50 272.20,497.30 272.90,497.20 273.60,497.10 274.40,496.90 275.10,496.80 275.80,496.70 276.60,496.60 277.30,496.60 278.00,496.40 278.80,496.30 279.50,496.20 280.20,496.10 281.00,496.00 281.70,495.90 282.40,495.80 283.20,495.70 283.90,495.60 284.60,495.40 285.40,495.30 286.10,495.20 286.80,495.10 287.60,495.10 288.30,494.90 289.10,494.80 289.80,494.60 290.50,494.50 291.30,494.40 292.00,494.40 292.70,494.20 293.50,494.10 294.20,494.00 294.90,493.90 295.70,493.70 296.40,493.60 297.10,493.50 297.90,493.50 298.60,493.40 299.30,493.20 300.10,493.10 300.80,493.00 301.50,492.90 302.30,492.80 303.00,492.70 303.70,492.60 304.50,492.40 305.20,492.30 305.90,492.20 306.70,492.10 307.40,492.00 308.10,491.90 308.90,491.70 309.60,491.60 310.40,491.40 311.10,491.30 311.80,491.10 312.60,491.00 313.30,490.90 314.00,490.70 314.80,490.50 315.50,490.40 316.20,490.20 317.00,490.00 317.70,489.90 318.40,489.70 319.20,489.50 319.90,489.30 320.60,489.10 321.40,488.90 322.10,488.80 322.80,488.60 323.60,488.50 324.30,488.30 325.00,488.00 325.80,487.80 326.50,487.60 327.20,487.40 328.00,487.20 328.70,487.10 329.40,486.80 330.20,486.60 330.90,486.40 331.70,486.10 332.40,485.90 333.10,485.80 333.90,485.60 334.60,485.40 335.30,485.10 336.10,484.90 336.80,484.60 337.50,484.40 338.30,484.30 339.00,484.10 339.70,483.80 340.50,483.60 341.20,483.30 341.90,483.10 342.70,482.90 343.40,482.70 344.10,482.50 344.90,482.30 345.60,482.00 346.30,481.70 347.10,481.50 347.80,481.20 348.50,481.10 349.30,480.90 350.00,480.60 350.80,480.30 351.50,480.10 352.20,479.90 353.00,479.80 353.70,479.60 354.40,479.40 355.20,479.10 355.90,478.80 356.60,478.50 357.40,478.40 358.10,478.20 358.80,478.00 359.60,477.80 360.30,477.50 361.00,477.20 361.80,476.90 362.50,476.60 363.20,476.40 364.00,476.20 364.70,476.00 365.40,475.60 366.20,475.30 366.90,475.00 367.60,474.70 368.40,474.40 369.10,474.20 369.80,474.00 370.60,473.70 371.30,473.30 372.10,473.00 372.80,472.70 373.50,472.40 374.30,472.20 375.00,472.00 375.70,471.60 376.50,471.30 377.20,471.00 377.90,470.60 378.70,470.40 379.40,470.20 380.10,470.00 380.90,469.70 381.60,469.40 382.30,469.10 383.10,468.80 383.80,468.60 384.50,468.40 385.30,468.20 386.00,467.90 386.70,467.60 387.50,467.40 388.20,467.10 388.90,466.90 389.70,466.80 390.40,466.60 391.10,466.40 391.90,466.20 392.60,465.90 393.40,465.70 394.10,465.50 394.80,465.40 395.60,465.20 396.30,465.00 397.00,464.80 397.80,464.50 398.50,464.30 399.20,464.20 400.00,464.00 400.70,463.90 401.40,463.70 402.20,463.50 402.90,463.20 403.60,463.00 404.40,462.90 405.10,462.80 405.80,462.60 406.60,462.40 407.30,462.20 408.00,462.00 408.80,461.80 409.50,461.60 410.20,461.50 411.00,461.40 411.70,461.20 412.40,460.90 413.20,460.70 413.90,460.50 414.70,460.30 415.40,460.20 416.10,460.00 416.90,459.80 417.60,459.60 418.30,459.40 419.10,459.10 419.80,458.90 420.50,458.80 421.30,458.60 422.00,458.30 422.70,458.10 423.50,457.80 424.20,457.60 424.90,457.50 425.70,457.30 426.40,457.10 427.10,456.90 427.90,456.60 428.60,456.30 429.30,456.00 430.10,455.80 430.80,455.60 431.50,455.40 432.30,455.10 433.00,454.80 433.80,454.60 434.50,454.30 435.20,454.00 436.00,453.90 436.70,453.60 437.40,453.40 438.20,453.10 438.90,452.80 439.60,452.50 440.40,452.20 441.10,452.00 441.80,451.80 442.60,451.50 443.30,451.20 444.00,450.90 444.80,450.60 445.50,450.30 446.20,450.10 447.00,449.90 447.70,449.60 448.40,449.30 449.20,449.00 449.90,448.70 450.60,448.50 451.40,448.30 452.10,448.00 452.80,447.80 453.60,447.50 454.30,447.20 455.10,447.00 455.80,446.70 456.50,446.50 457.30,446.30 458.00,446.00 458.70,445.70 459.50,445.50 460.20,445.20 460.90,445.00 461.70,444.80 462.40,444.60 463.10,444.40 463.90,444.10 464.60,443.90 465.30,443.60 466.10,443.40 466.80,443.20 467.50,443.10 468.30,442.80 469.00,442.50 469.70,442.30 470.50,442.10 471.20,441.90 471.90,441.80 472.70,441.60 473.40,441.40 474.10,441.20 474.90,440.90 475.60,440.70 476.40,440.50 477.10,440.30 477.80,440.10 478.60,439.90 479.30,439.70 480.00,439.50 480.80,439.30 481.50,439.20 482.20,439.10 483.00,438.90 483.70,438.70 484.40,438.60 485.20,438.40 485.90,438.20 486.60,438.00 487.40,437.90 488.10,437.80 488.80,437.60 489.60,437.50 490.30,437.30 491.00,437.10 491.80,437.00 492.50,436.80 493.20,436.70 494.00,436.50 494.70,436.40 495.50,436.20 496.20,436.00 496.90,435.90 497.70,435.70 498.40,435.60 499.10,435.40 499.90,435.20 500.60,435.10 501.30,434.90 502.10,434.80 502.80,434.60 503.50,434.50 504.30,434.10 505.00,433.90 505.70,433.70 506.50,433.60 507.20,433.40 507.90,433.20 508.70,433.10 509.40,432.90 510.10,432.70 510.90,432.50 511.60,432.30 512.30,432.10 513.10,432.00 513.80,431.80 514.50,431.60 515.30,431.40 516.00,431.20 516.80,431.00 517.50,430.80 518.20,430.60 519.00,430.50 519.70,430.20 520.40,430.00 521.20,429.80 521.90,429.60 522.60,429.40 523.40,429.30 524.10,429.10 524.80,428.90 525.60,428.70 526.30,428.40 527.00,428.20 527.80,428.10 528.50,427.90 529.20,427.70 530.00,427.50 530.70,427.30 531.40,427.00 532.20,426.80 532.90,426.70 533.60,426.50 534.40,426.30 535.10,426.20 535.80,425.90 536.60,425.70 537.30,425.50 538.10,425.30 538.80,425.20 539.50,425.00 540.30,424.80 541.00,424.60 541.70,424.40 542.50,424.20 543.20,424.10 543.90,423.90 544.70,423.80 545.40,423.60 546.10,423.40 546.90,423.20 547.60,423.00 548.30,422.80 549.10,422.70 549.80,422.60 550.50,422.40 551.30,422.20 552.00,422.00 552.70,421.80 553.50,421.70 554.20,421.60 554.90,421.40 555.70,421.30 556.40,421.10 557.20,420.90 557.90,420.70 558.60,420.60 559.40,420.50 560.10,420.40 560.80,420.20 561.60,420.10 562.30,419.90 563.00,419.70 563.80,419.60 564.50,419.50 565.20,419.40 566.00,419.30 566.70,419.10 567.40,418.90 568.20,418.80 568.90,418.70 569.60,418.60 570.40,418.50 571.10,418.30 571.80,418.10 572.60,418.00 573.30,417.80 574.00,417.70 574.80,417.60 575.50,417.50 576.20,417.30 577.00,417.10 577.70,417.00 578.50,416.80 579.20,416.70 579.90,416.60 580.70,416.50 581.40,416.30 582.10,416.20 582.90,416.00 583.60,415.80 584.30,415.70 585.10,415.60 585.80,415.50 586.50,415.30 587.30,415.20 588.00,415.00 588.70,414.80 589.50,414.70 590.20,414.60 590.90,414.50 591.70,414.30 592.40,414.10 593.10,414.00 593.90,413.80 594.60,413.70 595.30,413.60 596.10,413.50 596.80,413.30 597.50,413.10 598.30,413.00 599.00,412.80 599.80,412.70 600.50,412.60 601.20,412.50 602.00,412.30 602.70,412.10 603.40,411.90 604.20,411.70 604.90,411.60 605.60,411.50 606.40,411.30 607.10,411.20 607.80,411.00 608.60,410.90 609.30,410.70 610.00,410.60 610.80,410.50 611.50,410.40 612.20,410.20 613.00,410.00 613.70,409.90 614.40,409.70 615.20,409.60 615.90,409.50 616.60,409.40 617.40,409.20 618.10,409.00 618.90,408.90 619.60,408.80 620.30,408.70 621.10,408.60 621.80,408.50 622.50,408.30 623.30,408.20 624.00,408.00 624.70,407.90 625.50,407.80 626.20,407.70 626.90,407.60" stroke-linejoin="round" stroke-width="1.5" stroke="#000000" fill="none" stroke-linecap="butt"></polyline></g><g><path fill="none" stroke-linecap="butt" stroke-linejoin="round" stroke="#fff" stroke-width="2.5" d="M88.5 516.1L92.2 516L97.3 515.9L102.5 515.8L107.6 515.8L112.8 515.5L117.9 515.6L123 515.6L128.2 515.7L133.3 516L138.5 515.7L143.6 515.2L148.8 514.5L153.9 513.4L159 512L164.2 510.5L169.3 509.4L174.5 508.7L179.6 507.3L184.7 505.8L189.9 504.4L195 503L200.2 500.7L205.3 498.6L210.5 496.7L215.6 494.5L220.7 491.1L225.9 487.1L231 483.1L236.2 479.2L241.3 475.1L246.4 471.7L251.6 468.5L256.7 465.3L261.9 462.3L267 459.4L272.2 455.8L277.3 452.4L282.4 449L287.6 445.9L292.7 442.9L297.9 439.2L303 435.7L308.1 432.4L313.3 428.5L318.4 424.4L323.6 420.3L328.7 416.2L333.9 411.9L339 407.5L344.1 403L349.3 398.6L354.4 393.5L359.6 389.3L364.7 384.7L369.8 380.5L375 376.7L380.1 373.2L385.3 370.2L390.4 367.4L395.6 364.8L400.7 362.1L405.8 359.3L411 356L416.1 352.9L421.3 348.3L426.4 343.3L431.5 338L436.7 331.7L441.8 323.7L447 314.7L452.1 305.5L457.3 292.8L462.4 283.3L467.5 275.5L472.7 267.5L477.8 261.4L483 255.3L488.1 249.9L493.2 244.2L498.4 237.9L503.5 231.7L508.7 225.1L513.8 217.3L519 210L524.1 202.4L529.2 194.8L534.4 188.1L539.5 182.3L544.7 176.7L549.8 171.5L554.9 166.5L560.1 161.9L565.2 157.2L570.4 152.7L575.5 148.2L580.7 143.7L585.8 139.3L590.9 135.4L596.1 131.6L601.2 127.7L606.4 124.3L611.5 121.1L616.6 118L621.8 115.4L626.9 112.8"></path><polyline points="88.50,516.10 92.20,516.00 97.30,515.90 102.50,515.80 107.60,515.80 112.80,515.50 117.90,515.60 123.00,515.60 128.20,515.70 133.30,516.00 138.50,515.70 143.60,515.20 148.80,514.50 153.90,513.40 159.00,512.00 164.20,510.50 169.30,509.40 174.50,508.70 179.60,507.30 184.70,505.80 189.90,504.40 195.00,503.00 200.20,500.70 205.30,498.60 210.50,496.70 215.60,494.50 220.70,491.10 225.90,487.10 231.00,483.10 236.20,479.20 241.30,475.10 246.40,471.70 251.60,468.50 256.70,465.30 261.90,462.30 267.00,459.40 272.20,455.80 277.30,452.40 282.40,449.00 287.60,445.90 292.70,442.90 297.90,439.20 303.00,435.70 308.10,432.40 313.30,428.50 318.40,424.40 323.60,420.30 328.70,416.20 333.90,411.90 339.00,407.50 344.10,403.00 349.30,398.60 354.40,393.50 359.60,389.30 364.70,384.70 369.80,380.50 375.00,376.70 380.10,373.20 385.30,370.20 390.40,367.40 395.60,364.80 400.70,362.10 405.80,359.30 411.00,356.00 416.10,352.90 421.30,348.30 426.40,343.30 431.50,338.00 436.70,331.70 441.80,323.70 447.00,314.70 452.10,305.50 457.30,292.80 462.40,283.30 467.50,275.50 472.70,267.50 477.80,261.40 483.00,255.30 488.10,249.90 493.20,244.20 498.40,237.90 503.50,231.70 508.70,225.10 513.80,217.30 519.00,210.00 524.10,202.40 529.20,194.80 534.40,188.10 539.50,182.30 544.70,176.70 549.80,171.50 554.90,166.50 560.10,161.90 565.20,157.20 570.40,152.70 575.50,148.20 580.70,143.70 585.80,139.30 590.90,135.40 596.10,131.60 601.20,127.70 606.40,124.30 611.50,121.10 616.60,118.00 621.80,115.40 626.90,112.80" stroke-linejoin="round" stroke-width="1.5" stroke="#daae9e" fill="none" stroke-linecap="butt"></polyline></g><g><path fill="none" stroke-linecap="butt" stroke-linejoin="round" stroke="#fff" stroke-width="2.5" d="M88.5 516.4L92.2 516.6L97.3 516.8L102.5 517.1L107.6 517.5L112.8 517.7L117.9 518.1L123 518.9L128.2 519.6L133.3 520.5L138.5 520.7L143.6 520.8L148.8 520.7L153.9 520.6L159 520.1L164.2 519.5L169.3 519.5L174.5 519.6L179.6 519L184.7 518.2L189.9 517.6L195 516.8L200.2 515.3L205.3 514.2L210.5 512.8L215.6 511.1L220.7 509.1L225.9 507.1L231 505.1L236.2 503L241.3 500.8L246.4 498.9L251.6 496.1L256.7 493.2L261.9 490.4L267 488.8L272.2 487.1L277.3 485.4L282.4 483.2L287.6 481.2L292.7 479.3L297.9 477.2L303 475L308.1 472.5L313.3 469.4L318.4 466.1L323.6 462.9L328.7 459.7L333.9 456.2L339 452.7L344.1 449.4L349.3 446L354.4 442.1L359.6 439.3L364.7 436.4L369.8 433.5L375 431L380.1 428.8L385.3 427L390.4 425.5L395.6 424.1L400.7 422.5L405.8 420.9L411 419.2L416.1 417.2L421.3 414.6L426.4 411.2L431.5 407.2L436.7 402.9L441.8 398.4L447 394L452.1 388L457.3 380.7L462.4 373.7L467.5 368.5L472.7 365.4L477.8 362.6L483 359.7L488.1 356.9L493.2 353.8L498.4 350.8L503.5 347.7L508.7 344.1L513.8 339.4L519 335L524.1 330.7L529.2 326.4L534.4 322.2L539.5 318L544.7 314.2L549.8 310.6L554.9 307.1L560.1 303.9L565.2 300.7L570.4 297.5L575.5 294.2L580.7 291L585.8 287.8L590.9 284.8L596.1 281.8L601.2 278.7L606.4 276.1L611.5 273.7L616.6 271.3L621.8 269.1L626.9 267"></path><polyline points="88.50,516.40 92.20,516.60 97.30,516.80 102.50,517.10 107.60,517.50 112.80,517.70 117.90,518.10 123.00,518.90 128.20,519.60 133.30,520.50 138.50,520.70 143.60,520.80 148.80,520.70 153.90,520.60 159.00,520.10 164.20,519.50 169.30,519.50 174.50,519.60 179.60,519.00 184.70,518.20 189.90,517.60 195.00,516.80 200.20,515.30 205.30,514.20 210.50,512.80 215.60,511.10 220.70,509.10 225.90,507.10 231.00,505.10 236.20,503.00 241.30,500.80 246.40,498.90 251.60,496.10 256.70,493.20 261.90,490.40 267.00,488.80 272.20,487.10 277.30,485.40 282.40,483.20 287.60,481.20 292.70,479.30 297.90,477.20 303.00,475.00 308.10,472.50 313.30,469.40 318.40,466.10 323.60,462.90 328.70,459.70 333.90,456.20 339.00,452.70 344.10,449.40 349.30,446.00 354.40,442.10 359.60,439.30 364.70,436.40 369.80,433.50 375.00,431.00 380.10,428.80 385.30,427.00 390.40,425.50 395.60,424.10 400.70,422.50 405.80,420.90 411.00,419.20 416.10,417.20 421.30,414.60 426.40,411.20 431.50,407.20 436.70,402.90 441.80,398.40 447.00,394.00 452.10,388.00 457.30,380.70 462.40,373.70 467.50,368.50 472.70,365.40 477.80,362.60 483.00,359.70 488.10,356.90 493.20,353.80 498.40,350.80 503.50,347.70 508.70,344.10 513.80,339.40 519.00,335.00 524.10,330.70 529.20,326.40 534.40,322.20 539.50,318.00 544.70,314.20 549.80,310.60 554.90,307.10 560.10,303.90 565.20,300.70 570.40,297.50 575.50,294.20 580.70,291.00 585.80,287.80 590.90,284.80 596.10,281.80 601.20,278.70 606.40,276.10 611.50,273.70 616.60,271.30 621.80,269.10 626.90,267.00" stroke-linejoin="round" stroke-width="1.5" stroke="#daae9e" fill="none" stroke-linecap="butt"></polyline></g><g><path fill="none" stroke-linecap="butt" stroke-linejoin="round" stroke="#fff" stroke-width="2.5" d="M88.5 516.3L92.2 516.4L97.3 516.5L102.5 516.6L107.6 516.8L112.8 516.7L117.9 516.9L123 517.3L128.2 517.8L133.3 518.4L138.5 518.6L143.6 518.4L148.8 517.9L153.9 517.2L159 516.3L164.2 515.5L169.3 515L174.5 514.7L179.6 513.7L184.7 512.6L189.9 511.5L195 510.5L200.2 509L205.3 507.4L210.5 505.5L215.6 503.2L220.7 500.8L225.9 498.1L231 495.3L236.2 492.1L241.3 489.2L246.4 486.5L251.6 483.8L256.7 481.3L261.9 478.6L267 476.2L272.2 473.4L277.3 470.8L282.4 468.2L287.6 466L292.7 463.5L297.9 461.1L303 458.4L308.1 455.6L313.3 452.1L318.4 448.5L323.6 444.8L328.7 441.1L333.9 437.4L339 433.7L344.1 430.1L349.3 426.6L354.4 422.4L359.6 418.8L364.7 415.1L369.8 411.5L375 408.2L380.1 405.5L385.3 403.2L390.4 401L395.6 399L400.7 396.9L405.8 394.7L411 392L416.1 389.4L421.3 385.5L426.4 380.7L431.5 375.5L436.7 369.8L441.8 363.6L447 355.5L452.1 347.9L457.3 340L462.4 332.2L467.5 326.7L472.7 321.6L477.8 316.8L483 313.1L488.1 309.4L493.2 305.8L498.4 301.4L503.5 296.8L508.7 291.6L513.8 285.6L519 280.3L524.1 274.9L529.2 269.2L534.4 264L539.5 258.8L544.7 254.3L549.8 250L554.9 246L560.1 242.1L565.2 238.2L570.4 234.5L575.5 230.7L580.7 227L585.8 223.4L590.9 220.2L596.1 216.8L601.2 213.4L606.4 210.5L611.5 207.9L616.6 204.9L621.8 202.2L626.9 199.5"></path><polyline points="88.50,516.30 92.20,516.40 97.30,516.50 102.50,516.60 107.60,516.80 112.80,516.70 117.90,516.90 123.00,517.30 128.20,517.80 133.30,518.40 138.50,518.60 143.60,518.40 148.80,517.90 153.90,517.20 159.00,516.30 164.20,515.50 169.30,515.00 174.50,514.70 179.60,513.70 184.70,512.60 189.90,511.50 195.00,510.50 200.20,509.00 205.30,507.40 210.50,505.50 215.60,503.20 220.70,500.80 225.90,498.10 231.00,495.30 236.20,492.10 241.30,489.20 246.40,486.50 251.60,483.80 256.70,481.30 261.90,478.60 267.00,476.20 272.20,473.40 277.30,470.80 282.40,468.20 287.60,466.00 292.70,463.50 297.90,461.10 303.00,458.40 308.10,455.60 313.30,452.10 318.40,448.50 323.60,444.80 328.70,441.10 333.90,437.40 339.00,433.70 344.10,430.10 349.30,426.60 354.40,422.40 359.60,418.80 364.70,415.10 369.80,411.50 375.00,408.20 380.10,405.50 385.30,403.20 390.40,401.00 395.60,399.00 400.70,396.90 405.80,394.70 411.00,392.00 416.10,389.40 421.30,385.50 426.40,380.70 431.50,375.50 436.70,369.80 441.80,363.60 447.00,355.50 452.10,347.90 457.30,340.00 462.40,332.20 467.50,326.70 472.70,321.60 477.80,316.80 483.00,313.10 488.10,309.40 493.20,305.80 498.40,301.40 503.50,296.80 508.70,291.60 513.80,285.60 519.00,280.30 524.10,274.90 529.20,269.20 534.40,264.00 539.50,258.80 544.70,254.30 549.80,250.00 554.90,246.00 560.10,242.10 565.20,238.20 570.40,234.50 575.50,230.70 580.70,227.00 585.80,223.40 590.90,220.20 596.10,216.80 601.20,213.40 606.40,210.50 611.50,207.90 616.60,204.90 621.80,202.20 626.90,199.50" stroke-linejoin="round" stroke-width="1.5" stroke="#b13507" fill="none" stroke-linecap="butt"></polyline></g><g><path fill="none" stroke-linecap="butt" stroke-linejoin="round" stroke="#fff" stroke-width="2.5" d="M110.6 513.2L131.9 515.5L154.6 519.2L176.7 523.9L199.4 524.9L221.5 518.8L244.2 508L267 496.6L289.1 485.9L311.8 473.1L333.9 457.2L356.6 438.3L379.4 419.3L400 412.8L422.7 402.3L444.8 387.2L467.5 353.7L489.6 323.8L512.3 303.3L535.1 287.1L557.2 276.1L579.9 266L602 258.3L624.7 252.4"></path><polyline points="110.60,513.20 131.90,515.50 154.60,519.20 176.70,523.90 199.40,524.90 221.50,518.80 244.20,508.00 267.00,496.60 289.10,485.90 311.80,473.10 333.90,457.20 356.60,438.30 379.40,419.30 400.00,412.80 422.70,402.30 444.80,387.20 467.50,353.70 489.60,323.80 512.30,303.30 535.10,287.10 557.20,276.10 579.90,266.00 602.00,258.30 624.70,252.40" stroke-linejoin="round" stroke-width="1.5" stroke="#ccaae6" fill="none" stroke-linecap="butt"></polyline></g><g><path fill="none" stroke-linecap="butt" stroke-linejoin="round" stroke="#fff" stroke-width="2.5" d="M110.6 507.4L131.9 508L154.6 510.3L176.7 514.2L199.4 513.2L221.5 505.8L244.2 493.7L267 480.6L289.1 467.7L311.8 454.4L333.9 436.4L356.6 415.8L379.4 395.1L400 386.3L422.7 375L444.8 357.2L467.5 321.4L489.6 288.5L512.3 266.8L535.1 248.9L557.2 236.4L579.9 223.5L602 206.5L624.7 186.6"></path><polyline points="110.60,507.40 131.90,508.00 154.60,510.30 176.70,514.20 199.40,513.20 221.50,505.80 244.20,493.70 267.00,480.60 289.10,467.70 311.80,454.40 333.90,436.40 356.60,415.80 379.40,395.10 400.00,386.30 422.70,375.00 444.80,357.20 467.50,321.40 489.60,288.50 512.30,266.80 535.10,248.90 557.20,236.40 579.90,223.50 602.00,206.50 624.70,186.60" stroke-linejoin="round" stroke-width="1.5" stroke="#ccaae6" fill="none" stroke-linecap="butt"></polyline></g><g><path fill="none" stroke-linecap="butt" stroke-linejoin="round" stroke="#fff" stroke-width="2.5" d="M110.6 510.5L131.9 512L154.6 514.8L176.7 519.3L199.4 519.2L221.5 512.6L244.2 501.1L267 488.9L289.1 477.1L311.8 463.8L333.9 447.1L356.6 427.4L379.4 407.7L400 399.7L422.7 389.4L444.8 372.6L467.5 338L489.6 306.9L512.3 285.6L535.1 268.8L557.2 256.8L579.9 244.5L602 232.5L624.7 220.9"></path><polyline points="110.60,510.50 131.90,512.00 154.60,514.80 176.70,519.30 199.40,519.20 221.50,512.60 244.20,501.10 267.00,488.90 289.10,477.10 311.80,463.80 333.90,447.10 356.60,427.40 379.40,407.70 400.00,399.70 422.70,389.40 444.80,372.60 467.50,338.00 489.60,306.90 512.30,285.60 535.10,268.80 557.20,256.80 579.90,244.50 602.00,232.50 624.70,220.90" stroke-linejoin="round" stroke-width="1.5" stroke="#6d3e91" fill="none" stroke-linecap="butt"></polyline></g></g></g></g><g class="SourcesFooter" style="fill:#777"><g style="fill:#777"><text font-size="12.60" x="15.0" y="582.7"><tspan x="15" y="582.732">Source: The Economist (2022), WHO (2022)</tspan></text></g><text font-size="12.60" x="601.3" y="582.7"><tspan x="601.27" y="582.732"><a target='_blank' style='fill: #777;' href='https://ourworldindata.org/coronavirus'>OurWorldInData.org/coronavirus</a> • <a style="fill: #777;" class="cclogo" href="http://creativecommons.org/licenses/by/4.0/deed.en_US" target="_blank">CC BY</a></tspan></text></g></svg>