<?xml version="1.0" encoding="UTF-8"?><svg xmlns="http://www.w3.org/2000/svg" width="953" height="705" style="font-family: Arial, sans-serif"><g class="path" style="cursor: move;"><path stroke="black" stroke-width="1.5" fill="none" d="M119.18,71.94L853.45,391.49"></path><path stroke="black" stroke-width="1.5" fill="white" class="arrowfront" d="M-1,0L15,5L15,-5Z" transform="translate(853.4513393671934,391.493281984701) rotate(203.51824927952933)"></path></g><g class="path" style="cursor: move;"><path stroke="black" stroke-width="1.5" fill="none" d="M115.81,75.53L478.27,377.56"></path><path stroke="black" stroke-width="1.5" fill="white" class="arrowfront" d="M-1,0L15,5L15,-5Z" transform="translate(478.27282291568457,377.55919331645345) rotate(219.80345354881854)"></path></g><g class="path" style="cursor: move;"><path stroke="black" stroke-width="1.5" fill="none" d="M109.51,78.89L265.84,388.58"></path><path stroke="black" stroke-width="1.5" fill="white" class="arrowfront" d="M-1,0L15,5L15,-5Z" transform="translate(265.8416064067953,388.58435606124186) rotate(243.2163504582287)"></path></g><g class="path" style="cursor: move;"><path stroke="black" stroke-width="1.5" fill="none" d="M408.70,230.19L852.80,392.66"></path><path stroke="black" stroke-width="1.5" fill="white" class="arrowfront" d="M-1,0L15,5L15,-5Z" transform="translate(852.7991954079819,392.6631150618224) rotate(200.09444190720507)"></path></g><g class="path" style="cursor: move;"><path stroke="black" stroke-width="1.5" fill="none" d="M406.93,232.66L679.04,391.18"></path><path stroke="black" stroke-width="1.5" fill="white" class="arrowfront" d="M-1,0L15,5L15,-5Z" transform="translate(679.0447360324833,391.1782852063472) rotate(210.22278436634136)"></path></g><g class="path" style="cursor: move;"><path stroke="black" stroke-width="1.5" fill="none" d="M400.04,237.46L484.09,373.69"></path><path stroke="black" stroke-width="1.5" fill="white" class="arrowfront" d="M-1,0L15,5L15,-5Z" transform="translate(484.08811621577223,373.6896072030062) rotate(238.32661128480734)"></path></g><g class="path" style="cursor: move;"><path stroke="black" stroke-width="1.5" fill="none" d="M380.69,237.54L289.14,389.34"></path><path stroke="black" stroke-width="1.5" fill="white" class="arrowfront" d="M-1,0L15,5L15,-5Z" transform="translate(289.13515456162594,389.34074886672255) rotate(-58.9057275139427)"></path></g><g class="path" style="cursor: move;"><path stroke="black" stroke-width="1.5" fill="none" d="M133.82,480.01L851.18,402.34"></path><path stroke="black" stroke-width="1.5" fill="white" class="arrowfront" d="M-1,0L15,5L15,-5Z" transform="translate(851.1770696992876,402.34477957339146) rotate(173.82096378551716)"></path></g><g class="path" style="cursor: move;"><path stroke="black" stroke-width="1.5" fill="none" d="M127.32,493.06L259.45,625.41"></path><path stroke="black" stroke-width="1.5" fill="white" class="arrowfront" d="M-1,0L15,5L15,-5Z" transform="translate(259.44708665012814,625.4093608923232) rotate(225.04726179706483)"></path></g><g class="path" style="cursor: move;"><path stroke="black" stroke-width="1.5" fill="none" d="M133.25,477.86L472.68,395.83"></path><path stroke="black" stroke-width="1.5" fill="white" class="arrowfront" d="M-1,0L15,5L15,-5Z" transform="translate(472.68217074932767,395.83154526319436) rotate(166.413958539527)"></path></g><g class="path" style="cursor: move;"><path stroke="black" stroke-width="1.5" fill="none" d="M131.59,474.77L254.37,415.54"></path><path stroke="black" stroke-width="1.5" fill="white" class="arrowfront" d="M-1,0L15,5L15,-5Z" transform="translate(254.37035199493712,415.54365555665606) rotate(154.2490356565228)"></path></g><g class="path" style="cursor: move;"><path stroke="#4dac26" stroke-width="1.5" fill="none" d="M720.19,401.53L851.00,400.21"></path><path stroke="#4dac26" stroke-width="1.5" fill="white" class="arrowfront" d="M-1,0L15,5L15,-5Z" transform="translate(851.0016172520191,400.21272335830014) rotate(179.42278207658285)"></path></g><g class="path" style="cursor: move;"><path stroke="black" stroke-width="1.5" fill="none" d="M64.58,213.68L851.77,395.13"></path><path stroke="black" stroke-width="1.5" fill="white" class="arrowfront" d="M-1,0L15,5L15,-5Z" transform="translate(851.774277858822,395.1338719757736) rotate(192.9802420026396)"></path></g><g class="path" style="cursor: move;"><path stroke="black" stroke-width="1.5" fill="none" d="M65.23,210.54L365.29,223.44"></path><path stroke="black" stroke-width="1.5" fill="white" class="arrowfront" d="M-1,0L15,5L15,-5Z" transform="translate(365.293374022078,223.4378808843403) rotate(182.46109863767282)"></path></g><g class="path" style="cursor: move;"><path stroke="black" stroke-width="1.5" fill="none" d="M64.18,214.66L676.42,395.60"></path><path stroke="black" stroke-width="1.5" fill="white" class="arrowfront" d="M-1,0L15,5L15,-5Z" transform="translate(676.416809902189,395.59910906036134) rotate(196.4645752372586)"></path></g><g class="path" style="cursor: move;"><path stroke="black" stroke-width="1.5" fill="none" d="M59.53,220.30L258.31,393.09"></path><path stroke="black" stroke-width="1.5" fill="white" class="arrowfront" d="M-1,0L15,5L15,-5Z" transform="translate(258.3088626737486,393.09255849355986) rotate(220.99969718055138)"></path></g><g class="path" style="cursor: move;"><path stroke="black" stroke-width="1.5" fill="none" d="M103.82,366.72L252.38,401.72"></path><path stroke="black" stroke-width="1.5" fill="white" class="arrowfront" d="M-1,0L15,5L15,-5Z" transform="translate(252.38229370167153,401.7200206773917) rotate(193.2584680975136)"></path></g><g class="path" style="cursor: move;"><path stroke="black" stroke-width="1.5" fill="none" d="M294.75,633.46L853.15,407.99"></path><path stroke="black" stroke-width="1.5" fill="white" class="arrowfront" d="M-1,0L15,5L15,-5Z" transform="translate(853.1478379986075,407.9878474408699) rotate(158.01196351412852)"></path></g><g class="path" style="cursor: move;"><path stroke="black" stroke-width="1.5" fill="none" d="M288.82,627.91L481.06,406.16"></path><path stroke="black" stroke-width="1.5" fill="white" class="arrowfront" d="M-1,0L15,5L15,-5Z" transform="translate(481.06287238056245,406.16047189587357) rotate(130.92253896027376)"></path></g><g class="path" style="cursor: move;"><path stroke="black" stroke-width="1.5" fill="none" d="M276.62,624.80L276.62,426.56"></path><path stroke="black" stroke-width="1.5" fill="white" class="arrowfront" d="M-1,0L15,5L15,-5Z" transform="translate(276.6176259401665,426.55617207626375) rotate(90.00000051294695)"></path></g><g class="path" style="cursor: move;"><path stroke="#4dac26" stroke-width="1.5" fill="none" d="M516.81,391.73L675.23,400.52"></path><path stroke="#4dac26" stroke-width="1.5" fill="white" class="arrowfront" d="M-1,0L15,5L15,-5Z" transform="translate(675.2315697279889,400.5229440075618) rotate(183.1768526463546)"></path></g><g class="path" style="cursor: move;"><path stroke="#4dac26" stroke-width="1.5" fill="none" d="M296.55,405.30L471.93,392.36"></path><path stroke="#4dac26" stroke-width="1.5" fill="white" class="arrowfront" d="M-1,0L15,5L15,-5Z" transform="translate(471.9284188558874,392.35687558008203) rotate(175.7787680123393)"></path></g><g transform="translate(876,400)" style="cursor: move; touch-action: none;"><path fill-opacity="0.7" stroke-width="2" z-index="1" d="M 0 0 m 20, 0 a 20,15 0 1,1 -40,0 a 20,15 0 1,1 40,0" fill="#00a2e0" stroke="#000000"></path><rect class="textbg" fill="#ffffff" width="135.1875" height="17.875" x="-67.59375" y="20.515625"></rect><text class="nodelabel" y="35" text-anchor="middle">Abnormal Cytology</text><path d="M-2,-6L2,-6L2,6L-2,6Z" fill="#000000"></path></g><g transform="translate(101.30780273022673,65.20231213872835)" style="cursor: move; touch-action: none;"><path fill-opacity="0.7" stroke-width="2" z-index="1" d="M 0 0 m 20, 0 a 20,15 0 1,1 -40,0 a 20,15 0 1,1 40,0" fill="#ffffff" stroke="#000000"></path><rect class="textbg" fill="#ffffff" width="116.5" height="17.875" x="-58.25" y="20.515625"></rect><text class="nodelabel" y="35" text-anchor="middle">Maternal History</text></g><g transform="translate(390.2656902304635,224.3651387311148)" style="cursor: move; touch-action: none;"><path fill-opacity="0.7" stroke-width="2" z-index="1" d="M 0 0 m 20, 0 a 20,15 0 1,1 -40,0 a 20,15 0 1,1 40,0" fill="#ffffff" stroke="#000000"></path><rect class="textbg" fill="#ffffff" width="103.15625" height="17.875" x="-51.578125" y="20.515625"></rect><text class="nodelabel" y="35" text-anchor="middle">Sexual History</text></g><g transform="translate(113.97802633839551,481.88337850246864)" style="cursor: move; touch-action: none;"><path fill-opacity="0.7" stroke-width="2" z-index="1" d="M 0 0 m 20, 0 a 20,15 0 1,1 -40,0 a 20,15 0 1,1 40,0" fill="#ffffff" stroke="#000000"></path><rect class="textbg" fill="#ffffff" width="126.25" height="17.875" x="-63.125" y="20.515625"></rect><text class="nodelabel" y="35" text-anchor="middle">Structural Racism</text></g><g transform="translate(700.1870386096705,401.7008272789945)" style="cursor: move; touch-action: none;"><path fill-opacity="0.7" stroke-width="2" z-index="1" d="M 0 0 m 20, 0 a 20,15 0 1,1 -40,0 a 20,15 0 1,1 40,0" fill="#00a2e0" stroke="#00a2e0"></path><rect class="textbg" fill="#ffffff" width="133.4375" height="17.875" x="-66.71875" y="20.515625"></rect><text class="nodelabel" y="35" text-anchor="middle">Vaccine Response</text></g><g transform="translate(45.251661918328594,209.79910433930718)" style="cursor: move; touch-action: none;"><path fill-opacity="0.7" stroke-width="2" z-index="1" d="M 0 0 m 20, 0 a 20,15 0 1,1 -40,0 a 20,15 0 1,1 40,0" fill="#ffffff" stroke="#000000"></path><rect class="textbg" fill="#ffffff" width="28.46875" height="17.875" x="-14.234375" y="20.515625"></rect><text class="nodelabel" y="35" text-anchor="middle">Age</text></g><g transform="translate(84.49096048665733,362.8580689008409)" style="cursor: move; touch-action: none;"><path fill-opacity="0.7" stroke-width="2" z-index="1" d="M 0 0 m 20, 0 a 20,15 0 1,1 -40,0 a 20,15 0 1,1 40,0" fill="#bed403" stroke="#bed403"></path><rect class="textbg" fill="#ffffff" width="123.625" height="17.875" x="-61.8125" y="20.515625"></rect><text class="nodelabel" y="35" text-anchor="middle">Contraindications</text></g><g transform="translate(276.61762392688917,639.7976878612716)" style="cursor: move; touch-action: none;"><path fill-opacity="0.7" stroke-width="2" z-index="1" d="M 0 0 m 20, 0 a 20,15 0 1,1 -40,0 a 20,15 0 1,1 40,0" fill="#ffffff" stroke="#000000"></path><rect class="textbg" fill="#ffffff" width="70.28125" height="17.875" x="-35.140625" y="20.515625"></rect><text class="nodelabel" y="35" text-anchor="middle">Insurance</text></g><g transform="translate(496.849147007059,390.7878618298942)" style="cursor: move; touch-action: none;"><path fill-opacity="0.7" stroke-width="2" z-index="1" d="M 0 0 m 20, 0 a 20,15 0 1,1 -40,0 a 20,15 0 1,1 40,0" fill="#bed403" stroke="#000000"></path><rect class="textbg" fill="#ffffff" width="146.78125" height="17.875" x="-73.390625" y="20.515625"></rect><text class="nodelabel" y="35" text-anchor="middle">VaccineContinuation</text><path d="M-4,-6L7,0L-4,6Z" fill="#000000"></path></g><g transform="translate(276.61762392688917,406.55617207626375)" style="cursor: move; touch-action: none;"><path fill-opacity="0.7" stroke-width="2" z-index="1" d="M 0 0 m 20, 0 a 20,15 0 1,1 -40,0 a 20,15 0 1,1 40,0" fill="#bed403" stroke="#000000"></path><rect class="textbg" fill="#ffffff" width="116.53125" height="17.875" x="-58.265625" y="20.515625"></rect><text class="nodelabel" y="35" text-anchor="middle">VaccineInitiation</text><path d="M-4,-6L7,0L-4,6Z" fill="#000000"></path></g></svg>